<svg width="2048" height="674" viewBox="0 0 2048 674" fill="none" xmlns="http://www.w3.org/2000/svg">
<path d="M1013.73 1.06667L977.333 1.33334L977.067 61.0667L976.667 120.667L972.4 120.533C970 120.4 968 120.933 968 121.6C968 122.4 966.533 122.533 964.533 122.133C962.133 121.467 961.333 121.733 962.133 122.8C962.8 124 962 124.133 959.467 123.467C956.8 122.8 956 122.933 956.8 124.133C957.467 125.333 956.667 125.467 954.133 124.8C951.467 124.133 950.667 124.4 951.333 125.467C952 126.533 951.467 126.667 949.333 126C947.2 125.333 946.667 125.467 947.333 126.667C948 127.867 947.467 128 945.333 127.333C943.067 126.667 942.533 126.8 943.333 128.133C944.133 129.333 943.6 129.6 941.6 129.067C940 128.533 938.667 128.8 938.667 129.6C938.667 130.4 937.733 130.533 936.533 130.133C935.2 129.6 934.8 129.867 935.467 130.933C936.133 132 935.733 132.133 934.267 131.6C932.933 131.067 932 131.333 932 132.133C932 132.933 931.067 133.2 929.867 132.8C928.533 132.267 928.133 132.533 928.8 133.6C929.467 134.667 929.067 134.8 927.6 134.267C926.267 133.867 925.333 134 925.333 134.667C925.333 135.333 924.4 135.467 923.067 135.067C921.733 134.533 921.2 134.8 921.733 135.6C922.133 136.267 920.4 137.867 917.867 139.2C915.2 140.4 913.6 140.667 914 139.867C914.533 139.067 913.067 139.467 910.8 140.533C908.533 141.733 906.667 143.333 906.667 144C906.667 144.667 905.333 145.867 903.867 146.8C901.6 148 901.2 147.867 902 146.4C902.533 145.467 901.733 146.133 900.267 147.867C898.933 149.6 897.067 150.667 896.267 150.133C895.467 149.733 894.4 150 893.867 150.8C893.2 151.867 893.467 152 894.667 151.333C895.867 150.533 896.133 150.8 895.467 151.867C894.8 152.8 893.6 153.2 892.533 152.8C891.6 152.4 890.4 152.8 889.867 153.6C889.2 154.533 889.6 154.667 890.8 154.133C891.867 153.6 891.467 154 890.133 155.2C888.8 156.267 887.2 156.933 886.533 156.667C886 156.267 885.067 156.667 884.533 157.467C883.867 158.533 884.267 158.8 885.467 158.133C886.533 157.6 886.133 158 884.8 159.2C883.467 160.267 881.867 160.933 881.2 160.667C880.667 160.267 879.733 160.667 879.2 161.467C878.533 162.533 878.933 162.8 880.133 162.133C881.2 161.6 880.8 162 879.467 163.2C878.133 164.267 876.533 164.933 876 164.667C875.467 164.4 873.6 165.733 871.867 167.733L868.667 171.333L872 168.667C874.8 166.533 874.8 166.667 871.6 169.733C869.6 171.733 867.467 173.067 866.8 172.8C866.267 172.4 861.6 176.4 856.533 181.733L847.333 191.333L856.8 182.667C862 177.867 860.133 180 852.8 187.333C845.333 194.667 840.933 199.467 842.8 198C844.667 196.533 843.733 197.733 840.8 200.533C837.733 203.467 836.267 205.2 837.333 204.533C838.533 203.867 837.867 204.8 836 206.667C834.133 208.533 833.2 209.733 834 209.333C834.8 208.933 833.867 210.133 832 211.867C830.133 213.6 829.6 214.533 830.667 214C831.733 213.467 831.2 214.4 829.333 216C827.467 217.6 826.933 218.533 828 218C829.067 217.467 828.533 218.4 826.667 220C824.8 221.6 824.133 222.533 825.067 222C827.867 220.533 826.8 222.667 823.067 226.267C820.933 228.267 820.133 229.333 821.067 228.8C822.4 228 822.4 228.533 821.2 231.2C820.267 233.067 819.067 234.267 818.533 233.867C817.867 233.467 817.733 234.267 818.267 235.467C818.8 237.067 818.667 237.467 817.6 236.8C816.533 236.133 816.267 236.667 816.933 238.133C817.467 239.733 817.333 240.133 816.267 239.467C815.2 238.8 814.933 239.333 815.6 240.8C816.267 242.533 816 242.8 814.667 242C813.6 241.333 813.2 241.467 813.733 242.4C815.067 244.4 813.333 248.133 811.6 247.067C810.8 246.533 810.533 247.067 811.067 248.4C811.467 249.733 811.333 250.667 810.533 250.667C809.733 250.667 809.467 251.2 809.867 251.867C811.067 253.733 809.2 257.467 807.733 256.533C806.933 256 806.8 256.8 807.333 258.667C808 260.8 807.867 261.333 806.667 260.667C805.467 260 805.333 260.533 806 262.667C806.667 264.8 806.533 265.333 805.333 264.667C804.133 264 804 264.533 804.667 266.667C805.333 268.8 805.2 269.333 804 268.667C802.8 268 802.667 268.4 803.333 270.533C803.733 272 803.6 273.333 802.933 273.333C802.133 273.333 801.867 274.667 802.4 276.267C802.8 278.267 802.667 278.8 801.467 278.133C800.267 277.333 800.133 278.133 800.8 280.8C801.467 283.333 801.333 284.133 800.133 283.467C799.067 282.667 798.8 283.467 799.467 285.867C800 288 799.733 289.333 798.8 289.333C798 289.333 797.733 290.933 798.267 293.6C798.8 296.667 798.667 297.467 797.467 296.8C796.267 296 796 296.933 796.667 300.533C797.333 303.733 797.2 305.333 796.133 305.333C795.067 305.333 794.8 307.333 795.467 312C796 316 795.867 318.667 795.067 318.667C794.267 318.667 793.733 325.6 793.733 336C793.733 346.4 794.267 353.333 795.067 353.333C795.867 353.333 796 356 795.467 360C794.8 364.667 795.067 366.667 796.133 366.667C797.2 366.667 797.333 368.267 796.667 371.467C796 375.067 796.267 376 797.467 375.2C798.667 374.533 798.8 375.333 798.267 378.4C797.733 381.067 798 382.667 798.8 382.667C799.733 382.667 800 384 799.467 386.133C798.8 388.533 799.067 389.333 800.133 388.533C801.333 387.867 801.467 388.667 800.8 391.2C800.133 393.867 800.4 394.667 801.467 394C802.533 393.333 802.667 393.867 802 395.867C801.467 397.6 801.733 398.667 802.667 398.667C803.6 398.667 803.867 399.733 803.333 401.467C802.667 403.6 802.8 404 804 403.333C805.2 402.667 805.333 403.2 804.667 405.333C804 407.6 804.133 408.133 805.467 407.333C806.667 406.533 806.933 406.933 806.267 408.4C805.733 409.733 806 410.667 806.8 410.667C807.6 410.667 808 411.6 807.467 412.667C807.067 413.733 807.333 414.667 808 414.667C808.667 414.667 808.8 415.6 808.4 416.933C807.733 418.533 808 418.8 809.333 418C810.667 417.2 810.933 417.467 810.267 419.067C809.867 420.4 810 421.333 810.667 421.333C811.333 421.333 811.467 422.267 811.067 423.6C810.533 424.933 810.8 425.467 811.6 424.933C813.333 423.867 815.067 427.6 813.733 429.6C813.2 430.533 813.6 430.667 814.667 430C816 429.2 816.267 429.467 815.6 431.2C815.067 432.4 815.2 433.2 815.867 432.8C816.4 432.4 817.6 433.6 818.533 435.467C819.6 437.867 819.6 438.533 818.533 437.867C817.467 437.333 817.467 437.867 818.533 439.867C819.467 441.333 820.667 442.667 821.333 442.667C822 442.667 823.2 444 824.133 445.467C825.333 447.733 825.2 448.133 823.733 447.333C822.8 446.8 823.467 447.6 825.2 449.067C826.933 450.4 828 452.267 827.467 453.067C827.067 453.867 827.333 454.933 828.133 455.467C829.2 456.133 829.333 455.867 828.667 454.667C827.867 453.467 828.133 453.2 829.2 453.867C830.133 454.533 830.533 455.733 830.133 456.8C829.733 457.733 830.133 458.933 830.933 459.467C831.867 460.133 832 459.733 831.333 458.667C830.533 457.467 830.8 457.2 831.867 457.867C832.8 458.533 833.2 459.733 832.8 460.667C832.4 461.733 833.2 463.2 834.4 464.267C836.4 465.867 836.533 465.733 834.8 463.6C833.867 462.4 833.333 461.333 833.733 461.333C834 461.333 836 463.6 838.133 466.267C841.6 470.933 841.6 471.2 838.533 468.667C836.8 467.2 839.2 469.733 843.733 474.267C848.4 478.8 851.867 483.067 851.467 483.733C850.533 485.2 863.333 497.733 866.133 498.133C867.467 498.4 870 500.133 871.867 502.267L875.333 505.867L871.333 502.667L867.333 499.333L870.533 502.933C872.267 504.933 874.133 506.267 874.667 506C875.333 505.6 876.8 506.4 878.267 507.733C879.6 508.933 879.867 509.333 878.667 508.667C876.933 507.467 876.933 507.6 878.4 509.6C879.467 510.8 880.933 511.6 881.867 511.2C882.8 510.8 884.4 511.6 885.467 512.933C887.2 515.2 887.2 515.2 884.667 513.333C882.133 511.467 882.133 511.467 883.867 513.6C884.8 514.933 886.267 515.6 887.067 515.067C887.867 514.667 889.867 516 891.733 518.133C893.467 520.267 894.533 521.2 894 520.267C893.2 518.8 893.6 518.667 895.867 519.867C897.333 520.8 898.667 521.733 898.667 522.133C898.667 522.533 898 522.4 897.067 521.867C896.133 521.333 896 521.467 896.533 522.533C897.067 523.333 898.133 523.6 898.933 523.2C899.733 522.667 901.6 523.733 902.933 525.467C904.4 527.2 905.2 527.867 904.667 526.933C904 525.733 905.733 526.133 909.2 527.867C912.267 529.467 914.667 531.333 914.667 532.133C914.667 532.933 915.333 533.067 916 532.667C916.8 532.267 917.333 532.533 917.333 533.333C917.333 534.133 918 534.4 918.667 534C919.467 533.6 920 533.867 920 534.667C920 535.467 920.533 535.867 921.2 535.467C923.067 534.267 926.8 536.133 925.733 537.733C925.2 538.533 925.733 538.8 927.067 538.267C928.4 537.867 929.333 538 929.333 538.8C929.333 539.6 929.867 539.867 930.533 539.467C932.4 538.267 936.133 540.133 935.2 541.6C934.667 542.4 935.467 542.533 937.333 542C939.467 541.333 940 541.467 939.333 542.667C938.667 543.867 939.2 544 941.333 543.333C943.467 542.667 944 542.8 943.333 544C942.667 545.2 943.067 545.333 945.2 544.667C946.8 544.133 948 544.4 948 545.2C948 546 948.933 546.267 950 545.867C951.067 545.333 952 545.733 952 546.667C952 547.6 953.067 547.867 954.667 547.333C956.267 546.8 957.333 547.067 957.333 548C957.333 548.8 958.667 549.067 960.8 548.533C963.467 547.867 964.133 548 963.467 549.2C962.667 550.4 963.467 550.533 966.133 549.867C968.8 549.2 969.467 549.333 968.8 550.533C968 551.733 968.933 552 972.533 551.2L977.333 550.4L977.067 611.867L976.667 673.333H1013.73H1050.67L1050.4 612L1050 550.667L1053.73 551.467C1055.87 551.867 1057.33 551.6 1057.33 550.8C1057.33 549.867 1058.67 549.6 1060.8 550.133C1063.6 550.8 1064.13 550.667 1063.33 549.333C1062.53 548 1063.07 547.867 1065.87 548.533C1068.53 549.2 1069.33 549.067 1068.53 547.867C1067.87 546.667 1068.67 546.533 1071.2 547.2C1073.87 547.867 1074.67 547.6 1074 546.533C1073.33 545.467 1073.87 545.333 1076 546C1078.13 546.667 1078.67 546.533 1078 545.333C1077.33 544.133 1077.87 544 1080 544.667C1082.13 545.333 1082.67 545.2 1082 544C1081.33 542.8 1081.87 542.667 1084 543.333C1086.13 544 1086.67 543.867 1086 542.667C1085.33 541.467 1085.87 541.333 1088 542C1090.27 542.667 1090.8 542.533 1090 541.2C1089.2 540 1089.6 539.733 1091.07 540.4C1092.4 540.8 1093.33 540.667 1093.33 540C1093.33 539.333 1094.27 539.2 1095.6 539.6C1096.93 540.133 1097.47 539.867 1096.93 539.067C1095.73 537.2 1099.33 535.867 1102.27 536.933C1103.6 537.467 1104.13 537.2 1103.6 536.4C1103.07 535.733 1104.27 534.4 1106.13 533.467C1108.4 532.4 1109.2 532.4 1108.67 533.467C1108.13 534.267 1109.6 533.867 1111.87 532.8C1114.13 531.6 1116 530 1116 529.2C1116 528.4 1116.67 528.267 1117.33 528.667C1118.13 529.067 1118.67 528.933 1118.67 528.133C1118.67 527.333 1120 526.133 1121.47 525.2C1123.73 524 1124.13 524.133 1123.33 525.6C1122.8 526.533 1123.6 525.867 1125.07 524.133C1126.4 522.4 1128.27 521.333 1129.07 521.867C1129.87 522.267 1130.93 522 1131.47 521.2C1132.13 520.133 1131.87 520 1130.67 520.667C1129.47 521.467 1129.2 521.2 1129.87 520.133C1130.53 519.2 1131.73 518.8 1132.8 519.2C1133.73 519.6 1134.93 519.2 1135.47 518.4C1136.13 517.467 1135.73 517.333 1134.53 518C1133.47 518.533 1134.53 517.467 1136.67 515.467C1138.93 513.6 1141.33 512.267 1142.27 512.667C1143.07 512.933 1144.53 512.133 1145.6 510.933C1147.2 508.8 1147.07 508.8 1144.67 510.667C1142.13 512.533 1142.13 512.533 1143.87 510.267C1144.8 509.067 1146.4 508.133 1147.2 508.267C1148 508.533 1156.93 500.267 1167.2 490C1177.33 479.733 1184.27 472.533 1182.53 474C1180.67 475.6 1181.2 474.533 1184 470.933C1186.4 467.867 1188.67 465.333 1189.07 465.333C1189.33 465.333 1188.8 466.4 1187.87 467.6C1186.13 469.733 1186.27 469.867 1188.27 468.267C1189.47 467.2 1190.27 465.733 1189.87 464.8C1189.47 463.867 1190.27 462.267 1191.6 461.2C1193.87 459.467 1193.87 459.467 1192 462C1190.13 464.4 1190.13 464.533 1192.27 462.933C1193.47 461.867 1194.27 460.4 1193.87 459.333C1193.47 458.4 1193.87 457.2 1194.8 456.533C1195.87 455.867 1196.13 456.133 1195.33 457.333C1194.67 458.4 1194.8 458.8 1195.73 458.133C1196.53 457.6 1196.93 456.4 1196.53 455.467C1196.13 454.4 1196.53 453.2 1197.47 452.533C1198.53 451.867 1198.8 452.133 1198 453.333C1197.33 454.533 1197.47 454.8 1198.53 454.133C1199.33 453.6 1199.6 452.533 1199.2 451.733C1198.67 450.933 1199.73 449.067 1201.47 447.733C1203.2 446.267 1203.87 445.467 1202.93 446C1201.47 446.8 1201.33 446.4 1202.53 444.133C1203.47 442.667 1204.67 441.333 1205.47 441.333C1206.27 441.333 1206.4 440.667 1206 440C1205.6 439.333 1205.73 438.667 1206.53 438.667C1208.4 438.667 1213.6 428.267 1212.67 426.667C1212.27 425.867 1212.53 425.333 1213.33 425.333C1214.13 425.333 1214.53 424.8 1214.13 424.133C1212.93 422.267 1214.8 418.533 1216.4 419.6C1217.2 420.133 1217.47 419.6 1216.93 418.267C1216.53 416.933 1216.67 416 1217.33 416C1218 416 1218.13 415.067 1217.73 413.733C1217.07 412.267 1217.33 411.867 1218.53 412.667C1219.87 413.467 1220 412.933 1219.33 410.667C1218.67 408.533 1218.8 408 1220 408.667C1221.2 409.333 1221.33 408.8 1220.67 406.667C1220 404.533 1220.13 404 1221.33 404.667C1222.53 405.333 1222.67 404.8 1222 402.667C1221.33 400.533 1221.47 400 1222.67 400.667C1223.87 401.333 1224 400.933 1223.33 398.8C1222.8 397.067 1223.07 396 1224 396C1224.93 396 1225.2 394.933 1224.67 393.333C1224.13 391.733 1224.4 390.667 1225.33 390.667C1226.27 390.667 1226.53 389.6 1226 388C1225.47 386.4 1225.73 385.333 1226.67 385.333C1227.47 385.333 1227.73 384 1227.2 382C1226.67 380 1226.93 378.667 1227.87 378.667C1228.67 378.667 1228.93 377.2 1228.53 374.667C1228 372.133 1228.27 370.667 1229.2 370.667C1230.27 370.667 1230.4 368.933 1229.87 365.333C1229.33 362.4 1229.47 360 1230.13 360C1230.8 360 1231.33 349.2 1231.33 336C1231.33 322.8 1230.8 312 1230.13 312C1229.47 312 1229.33 309.6 1229.87 306.667C1230.4 303.067 1230.27 301.333 1229.2 301.333C1228.27 301.333 1228 299.867 1228.53 297.333C1228.93 294.8 1228.67 293.333 1227.87 293.333C1226.93 293.333 1226.67 292 1227.2 290C1227.73 287.867 1227.47 286.667 1226.53 286.667C1225.6 286.667 1225.33 285.467 1225.87 283.2C1226.53 280.667 1226.27 280 1225.2 280.8C1224 281.467 1223.87 280.933 1224.27 278.933C1224.8 277.333 1224.53 276 1223.73 276C1223.07 276 1222.93 274.667 1223.33 273.2C1224 271.067 1223.87 270.667 1222.67 271.333C1221.47 272 1221.33 271.6 1222 269.467C1222.53 267.733 1222.27 266.667 1221.33 266.667C1220.4 266.667 1220.13 265.733 1220.53 264.533C1221.07 263.333 1220.8 262.8 1219.87 263.467C1218.8 264 1218.67 263.333 1219.33 261.333C1220 259.2 1219.87 258.667 1218.67 259.333C1217.47 260 1217.33 259.467 1218 257.333C1218.53 255.467 1218.4 254.667 1217.6 255.2C1216.13 256.133 1214.27 252.4 1215.47 250.533C1215.87 249.867 1215.6 249.333 1214.8 249.333C1214 249.333 1213.87 248.4 1214.27 247.067C1214.8 245.733 1214.53 245.2 1213.73 245.733C1212 246.8 1210.27 243.067 1211.6 241.067C1212.13 240.133 1211.73 240 1210.67 240.667C1209.33 241.467 1209.07 241.2 1209.73 239.467C1210.27 238.267 1210.13 237.467 1209.47 237.867C1208.93 238.267 1207.73 237.067 1206.8 235.2C1205.6 232.533 1205.6 232 1206.93 232.667C1207.87 233.2 1207.47 232.533 1206.13 231.467C1204.67 230.267 1204 229.333 1204.67 229.333C1205.33 229.333 1204.8 228.533 1203.33 227.6C1202 226.533 1201.33 225.067 1201.87 224.267C1202.27 223.467 1202 222.4 1201.2 221.867C1200.13 221.333 1200 221.467 1200.53 222.4C1201.07 223.333 1201.2 224 1200.8 224C1200.4 224 1199.47 222.667 1198.53 221.2C1197.33 218.933 1197.47 218.533 1198.93 219.333C1199.87 219.867 1199.2 218.933 1197.33 217.333C1195.47 215.733 1194.93 214.8 1196 215.333C1197.07 215.867 1196.53 214.933 1194.67 213.2C1192.67 211.467 1190 208.533 1188.67 206.667C1186 203.333 1186 203.333 1188.67 205.2C1190.13 206.267 1188.8 204.8 1185.6 201.867C1182.4 199.067 1179.73 195.6 1179.47 194.267C1179.07 191.467 1157.33 169.2 1155.87 170.133C1155.33 170.4 1153.47 169.333 1151.73 167.733C1149.6 165.733 1149.47 165.333 1151.33 166.667C1154 168.667 1154 168.667 1151.47 165.733C1150.13 164 1148.53 162.933 1148 163.333C1147.47 163.6 1145.87 162.933 1144.53 161.867C1143.2 160.667 1142.8 160.267 1143.87 160.8C1145.07 161.467 1145.47 161.2 1144.8 160.133C1144.27 159.333 1143.2 158.933 1142.53 159.467C1141.87 159.867 1139.33 158.267 1137.07 155.733C1134.8 153.333 1133.33 152.267 1133.87 153.333C1134.4 154.4 1133.6 153.867 1132 152C1130.4 150.133 1129.47 149.6 1130 150.667C1130.53 151.733 1129.6 151.2 1128 149.333C1126.4 147.467 1125.47 146.8 1126 147.733C1126.8 149.2 1126.4 149.333 1124.13 148.133C1122.67 147.2 1121.33 146.267 1121.33 145.867C1121.33 145.467 1122 145.6 1122.67 146C1123.47 146.4 1124 146.533 1124 146.133C1124 145.733 1122.67 144.8 1121.2 143.867C1119.2 142.8 1118.67 142.8 1119.2 143.867C1119.87 144.933 1119.2 144.933 1116.8 143.867C1114.93 142.933 1113.73 141.733 1114.13 141.2C1114.53 140.533 1113.87 140.4 1112.8 140.8C1111.73 141.2 1109.73 140.4 1108.4 139.067C1107.07 137.733 1105.2 136.667 1104.4 136.533C1100.4 136.267 1099.87 135.867 1100.8 134.4C1101.47 133.333 1101.07 133.2 1099.6 133.733C1098.27 134.133 1097.33 134 1097.33 133.2C1097.33 132.4 1096.8 132.133 1096.13 132.533C1094.27 133.733 1090.53 131.867 1091.47 130.4C1092 129.6 1091.2 129.467 1089.33 130C1087.2 130.667 1086.67 130.533 1087.33 129.333C1088 128.133 1087.47 128 1085.33 128.667C1083.2 129.333 1082.67 129.2 1083.33 128C1084 126.8 1083.6 126.667 1081.47 127.333C1079.87 127.867 1078.67 127.6 1078.67 126.8C1078.67 126 1077.73 125.733 1076.67 126.133C1075.6 126.667 1074.67 126.267 1074.67 125.333C1074.67 124.4 1073.6 124.133 1072 124.667C1070.4 125.2 1069.33 124.933 1069.33 124C1069.33 123.067 1068.27 122.8 1066.67 123.333C1065.07 123.867 1064 123.6 1064 122.667C1064 121.867 1062.67 121.6 1060.53 122.133C1057.87 122.8 1057.2 122.667 1058 121.333C1058.8 120.133 1058 120 1054.8 120.667L1050.67 121.6L1050.4 61.0667L1050 0.666672L1013.73 1.06667ZM1168 182C1174.27 188.267 1178.93 193.333 1178.67 193.333C1178.27 193.333 1172.93 188.267 1166.67 182C1160.4 175.733 1155.73 170.667 1156 170.667C1156.4 170.667 1161.73 175.733 1168 182ZM977.333 335.067V476.8L973.867 477.067C971.733 477.2 970.8 476.8 971.467 475.867C972 474.8 971.333 474.667 969.333 475.333C967.2 476 966.667 475.867 967.333 474.667C968 473.467 967.467 473.333 965.333 474C963.067 474.667 962.533 474.533 963.333 473.2C964.133 472 963.733 471.733 962.267 472.4C959.333 473.467 955.733 472.133 956.933 470.267C957.467 469.467 956.933 469.2 955.6 469.733C954.267 470.133 953.333 470 953.333 469.2C953.333 468.4 952.8 468.267 952 468.667C951.333 469.067 950.667 468.8 950.667 468C950.667 467.2 950.133 466.933 949.333 467.333C948.667 467.733 948 467.467 948 466.667C948 465.867 947.333 465.6 946.533 466.133C945.6 466.667 943.867 465.6 942.4 463.867C940.933 462.133 940.133 461.467 940.667 462.267C942.133 465.2 940 464.133 936.4 460.267C934.4 458.267 933.333 457.6 933.867 458.667C934.533 459.733 933.6 459.2 931.867 457.333C930.133 455.467 928.933 454.533 929.333 455.333C929.733 456.133 928.533 455.2 926.667 453.333C924.8 451.467 924 450.8 924.667 451.867C928.933 458.4 906.667 437.333 897.333 426L894 422L897.333 424.667C899.2 426.133 898 424.533 894.667 421.333C889.067 415.733 879.067 399.733 882.533 401.867C883.6 402.667 883.6 402 882.533 399.467C881.6 397.6 880.533 396.4 880 396.667C878.667 397.467 877.067 393.467 878.133 391.867C878.533 391.2 878.267 390.667 877.467 390.667C876.667 390.667 876.533 389.733 876.933 388.4C877.6 386.8 877.333 386.533 876 387.333C874.667 388.133 874.4 387.867 875.067 386.267C875.467 384.933 875.333 384 874.533 384C873.733 384 873.467 382.8 874 381.2C874.667 379.067 874.533 378.667 873.333 379.333C872.133 380 872 379.467 872.667 377.333C873.333 375.067 873.2 374.667 872 375.333C870.667 376.133 870.533 375.467 871.2 372.8C871.867 370.133 871.733 369.333 870.533 370.133C869.333 370.8 869.2 370 869.733 366.933C870.267 364.4 870 362.667 869.2 362.667C868.4 362.667 868.267 360.8 868.8 357.867C869.333 355.067 869.2 353.2 868.533 353.733C867.867 354.133 867.333 346.533 867.333 336C867.333 325.867 867.867 317.867 868.533 318.267C869.067 318.667 869.2 316.533 868.667 313.333C868 309.067 868.133 307.867 869.333 308.667C870.533 309.467 870.667 308.533 870 305.333C869.333 302 869.467 301.2 870.667 302C872 302.8 872.133 302.133 871.467 299.467C870.8 296.8 871.067 296 872.133 296.667C873.2 297.333 873.333 296.8 872.667 294.8C872.133 293.2 872.4 292 873.2 292C874 292 874.267 291.067 873.867 290C873.333 288.933 873.733 288 874.533 288C875.333 288 875.6 287.067 875.2 286C874.667 284.933 875.067 284 876 284C876.8 284 877.2 283.467 876.8 282.8C875.6 280.933 877.467 277.2 879.067 278.267C879.867 278.8 880.133 278.267 879.6 276.933C879.2 275.6 879.333 274.667 880.133 274.667C880.933 274.667 881.067 274 880.667 273.333C880.267 272.533 880.533 272 881.333 272C882.133 272 882.4 271.333 882 270.667C881.6 269.867 881.733 269.333 882.533 269.333C883.333 269.333 884.533 268 885.467 266.533C886.533 264.533 886.533 264 885.467 264.533C882.667 266.267 884 263.867 887.733 260.4C889.733 258.4 890.4 257.333 889.333 257.867C888.267 258.4 888.8 257.6 890.667 256C892.533 254.4 893.067 253.467 892 254C890.933 254.533 891.467 253.6 893.333 251.867C895.2 250.133 895.867 249.2 894.667 249.867C893.6 250.533 895.333 248.4 898.8 245.2C902.133 242 903.467 240.533 901.733 241.867C895.333 247.333 899.067 242.8 910.267 232C916.667 225.733 920.8 222.133 919.333 224.133C917.867 226 919.067 225.067 922 222C924.933 218.933 928.533 215.6 929.867 214.533C932.133 212.933 932.4 212.933 931.467 214.667C930.933 215.733 931.733 215.2 933.333 213.333C934.933 211.467 935.867 210.933 935.333 212C934.8 213.067 935.6 212.667 936.933 211.2C939.6 208 946.267 204.133 944.8 206.533C944.133 207.6 944.8 207.6 947.2 206.533C949.067 205.6 950.267 204.4 949.733 203.6C949.333 202.8 949.6 202.667 950.4 203.067C952.4 204.4 956.133 202.667 955.067 200.933C954.533 200.133 955.067 199.867 956.4 200.4C957.733 200.8 958.667 200.667 958.667 200C958.667 199.333 959.6 199.2 960.933 199.6C962.4 200.267 962.8 200 962 198.8C961.2 197.467 961.733 197.333 964 198C966.133 198.667 966.667 198.533 966 197.333C965.333 196.133 965.867 196 968 196.667C970.133 197.333 970.667 197.2 970 196C969.333 194.8 969.733 194.667 971.867 195.333C973.467 195.867 974.667 195.6 974.667 194.8C974.667 194 975.333 193.333 976 193.333C976.933 193.333 977.333 241.467 977.333 335.067ZM1056 196C1056 196.667 1056.93 196.933 1058 196.533C1059.07 196 1060 196.4 1060 197.2C1060 198 1060.93 198.267 1062 197.867C1063.07 197.333 1064 197.733 1064 198.533C1064 199.333 1064.93 199.6 1066.27 199.067C1067.87 198.4 1068.13 198.667 1067.33 200C1066.53 201.333 1066.8 201.6 1068.4 200.933C1069.73 200.533 1070.67 200.667 1070.67 201.467C1070.67 202.267 1071.2 202.4 1072 202C1073.47 201.067 1084 206.267 1084 208C1084 208.667 1085.33 209.867 1086.8 210.8C1089.07 212 1089.47 211.867 1088.67 210.4C1088.13 209.467 1089.07 210.133 1090.67 212C1092.27 213.867 1093.2 214.4 1092.67 213.333C1092.13 212.267 1093.07 212.8 1094.67 214.667C1096.27 216.533 1097.07 217.067 1096.53 216C1094.93 212.8 1098.4 216 1116 233.467C1130.93 248.4 1141.33 260.533 1135.33 256.133C1133.87 255.067 1134.67 256 1137.07 258.4C1141.2 262.4 1142.8 265.067 1139.87 263.2C1138.8 262.667 1138.8 263.2 1139.87 265.2C1140.8 266.667 1142 268 1142.8 268C1143.6 268 1143.87 268.533 1143.47 269.2C1143.07 269.867 1143.6 270.8 1144.8 271.2C1146 271.733 1146.67 272.933 1146.13 274C1145.73 275.067 1146 276 1146.67 276C1147.33 276 1147.47 276.933 1147.07 278.267C1146.4 279.867 1146.67 280.133 1148 279.333C1149.33 278.533 1149.6 278.8 1148.93 280.4C1148.53 281.733 1148.67 282.667 1149.33 282.667C1150 282.667 1150.13 283.6 1149.73 284.933C1149.07 286.4 1149.33 286.8 1150.53 286C1151.87 285.2 1152 285.733 1151.33 288C1150.67 290.133 1150.8 290.667 1152 290C1153.2 289.333 1153.33 289.733 1152.67 291.867C1152.13 293.6 1152.4 294.667 1153.33 294.667C1154.27 294.667 1154.53 295.733 1154 297.467C1153.33 299.6 1153.47 300 1154.67 299.333C1156 298.533 1156.13 299.2 1155.47 301.867C1154.93 304 1155.2 305.333 1156.13 305.333C1157.07 305.333 1157.2 306.8 1156.67 309.467C1156 312.667 1156.13 313.467 1157.33 312.667C1158.67 311.867 1158.8 313.067 1158.13 318.4C1157.6 322.933 1157.73 325.333 1158.67 325.333C1159.47 325.333 1160 329.6 1160 336.133C1160 343.467 1159.6 346.533 1158.53 345.867C1157.6 345.333 1157.33 347.333 1158 352.667C1158.8 358.667 1158.67 360.133 1157.33 359.333C1156.13 358.533 1156 359.333 1156.67 362.667C1157.33 365.867 1157.2 366.8 1156 366C1154.8 365.2 1154.67 366.133 1155.33 369.333C1156 372.533 1155.87 373.467 1154.67 372.667C1153.47 372 1153.33 372.4 1154 374.533C1154.4 376 1154.27 377.333 1153.6 377.333C1152.8 377.333 1152.53 378.667 1153.07 380.267C1153.6 382.4 1153.33 382.8 1152 382C1150.67 381.2 1150.4 381.467 1151.07 383.067C1152.13 386 1150.8 389.6 1148.93 388.4C1148.13 387.867 1147.87 388.4 1148.4 389.733C1149.47 392.667 1148.13 396.267 1146.27 395.067C1145.47 394.533 1145.2 395.067 1145.73 396.4C1146.13 397.733 1146 398.667 1145.33 398.667C1144.67 398.667 1143.47 400 1142.53 401.467C1141.47 403.6 1141.47 404.133 1142.67 403.333C1145.47 401.6 1139.87 411.2 1136.27 414.533C1134.27 416.267 1133.6 417.2 1134.67 416.667C1135.73 416.133 1135.2 417.067 1133.33 418.667C1131.47 420.267 1130.93 421.2 1132 420.667C1133.07 420.133 1131.87 421.733 1129.2 424.267C1126.67 426.667 1125.47 428 1126.67 427.333C1127.87 426.533 1125.87 428.8 1122.13 432.133C1118.53 435.467 1112.8 441.2 1109.47 444.8C1106.13 448.533 1104 450.533 1104.67 449.333C1105.47 448.133 1104 449.333 1101.47 451.867C1098.93 454.533 1097.47 455.733 1098.13 454.667C1098.8 453.467 1097.87 454.133 1096.13 456C1094.4 457.867 1093.47 458.4 1094 457.333C1094.53 456.267 1093.6 456.8 1092 458.667C1090.4 460.533 1089.6 461.067 1090.13 460C1090.67 458.933 1089.6 459.6 1087.6 461.6C1084.13 465.333 1081.73 466.667 1083.33 464C1083.87 463.2 1082.13 463.6 1079.47 464.8C1076.93 466.133 1075.07 467.467 1075.33 468C1076.27 469.467 1069.6 472 1067.07 471.067C1065.47 470.4 1065.2 470.667 1066 472C1066.8 473.333 1066.53 473.6 1064.93 472.933C1063.6 472.4 1062.67 472.667 1062.67 473.467C1062.67 474.267 1061.73 474.667 1060.67 474.133C1059.6 473.733 1058.67 474 1058.67 474.8C1058.67 475.6 1057.87 476 1056.8 475.6C1055.73 475.2 1054.67 475.467 1054.4 476.267C1054.13 477.067 1053.07 477.333 1052.27 476.8C1049.87 475.333 1050 196.533 1052.4 195.6C1055.07 194.533 1056 194.533 1056 196ZM1116.67 232C1121.73 237.067 1125.6 241.333 1125.2 241.333C1124.93 241.333 1120.4 237.067 1115.33 232C1110.27 226.8 1106.4 222.667 1106.8 222.667C1107.07 222.667 1111.6 226.8 1116.67 232ZM1117.33 439.333C1114.13 442.667 1111.2 445.333 1110.8 445.333C1110.4 445.333 1112.8 442.667 1116 439.333C1119.2 436 1122.13 433.333 1122.53 433.333C1122.93 433.333 1120.53 436 1117.33 439.333ZM859.333 490.667C862.933 494.267 865.6 497.333 865.2 497.333C864.8 497.333 861.6 494.267 858 490.667C854.4 486.933 851.733 484 852.133 484C852.533 484 855.733 486.933 859.333 490.667ZM1154.67 501.733C1154.67 502 1153.07 503.6 1151.07 505.467L1147.33 508.667L1150.53 504.933C1153.6 501.6 1154.67 500.667 1154.67 501.733Z" fill="white"/>
<path d="M925.2 219.6C923.467 221.733 923.6 221.867 925.733 220.133C927.867 218.4 928.533 217.333 927.467 217.333C927.2 217.333 926.133 218.4 925.2 219.6Z" fill="white"/>
<path d="M910 438.667C915.067 443.733 919.6 448 919.867 448C920.267 448 916.4 443.733 911.334 438.667C906.267 433.467 901.734 429.333 901.467 429.333C901.067 429.333 904.934 433.467 910 438.667Z" fill="white"/>
<path d="M1100 219.2C1100 219.467 1101.07 220.533 1102.4 221.467C1104.4 223.2 1104.53 223.067 1102.8 220.933C1101.07 218.8 1100 218.133 1100 219.2Z" fill="white"/>
<path d="M1127.33 246.667C1128.67 248.133 1130 249.333 1130.4 249.333C1130.8 249.333 1130 248.133 1128.67 246.667C1127.33 245.2 1126 244 1125.6 244C1125.2 244 1126 245.2 1127.33 246.667Z" fill="white"/>
<path d="M0 20.6667V40H451.333H902.667V20.6667V1.33333H451.333H0V20.6667Z" fill="white"/>
<path d="M1120 20.6667V40H1571.33H2022.67V20.6667V1.33333H1571.33H1120V20.6667Z" fill="white"/>
<path d="M39.0667 118.4L6.66667 118.667L6.4 337.333L6 556H40.9333H76L76.2667 403.2C76.5333 319.2 76.2667 250.133 75.7333 249.733C75.0667 249.467 74.6667 248.4 74.6667 247.6C74.8 246 77.3333 249.6 77.6 251.6C77.7333 252.267 78.6667 253.467 79.8667 254.4C81.4667 255.867 81.6 256 80 255.333C78.9333 254.8 79.7333 255.867 81.8667 257.6C84 259.467 85.3333 261.6 84.8 262.4C84.4 263.2 84.6667 264.267 85.4667 264.8C86.5333 265.333 86.6667 265.2 86.1333 264.267C84.1333 260.933 86.5333 262.933 88.8 266.267C90.5333 268.933 90.5333 269.6 89.2 268.667C88.1333 267.867 88.8 268.8 90.6667 270.533C92.5333 272.267 93.0667 273.2 92 272.667C90.9333 272.133 91.7333 273.2 93.8667 274.933C96 276.8 97.3333 278.933 96.8 279.733C96.4 280.533 96.6667 281.6 97.4667 282.133C98.5333 282.667 98.6667 282.533 98.1333 281.6C96.1333 278.267 98.5333 280.267 100.8 283.6C102.533 286.267 102.533 286.933 101.2 286C100.133 285.2 100.8 286.133 102.667 287.867C104.533 289.6 105.067 290.533 104 290C102.933 289.467 103.467 290.4 105.333 292C107.2 293.6 107.733 294.533 106.667 294C105.6 293.467 106.4 294.533 108.533 296.267C110.667 298.133 112 300.267 111.467 301.067C111.067 301.867 111.333 302.933 112.133 303.467C113.2 304 113.333 303.867 112.8 302.933C110.8 299.733 113.067 301.467 115.333 304.8C116.933 307.2 117.067 308 115.867 307.333C114.8 306.8 115.467 307.733 117.333 309.333C119.2 310.933 119.733 311.867 118.667 311.333C117.6 310.8 118.4 311.867 120.533 313.6C122.667 315.467 124 317.6 123.467 318.4C123.067 319.2 123.333 320.267 124.133 320.8C125.2 321.333 125.333 321.2 124.8 320.267C122.8 316.933 125.2 318.933 127.467 322.267C129.2 324.933 129.2 325.6 127.867 324.667C126.8 323.867 127.467 324.8 129.333 326.533C131.2 328.267 131.733 329.2 130.667 328.667C129.6 328.133 130.4 329.2 132.533 330.933C134.667 332.8 136 334.933 135.467 335.733C135.067 336.533 135.333 337.6 136.133 338.133C137.2 338.667 137.333 338.533 136.8 337.6C134.8 334.267 137.2 336.267 139.467 339.6C141.2 342.267 141.2 342.933 139.867 342C138.8 341.2 139.467 342.133 141.333 343.867C143.2 345.6 143.733 346.533 142.667 346C141.6 345.467 142.4 346.533 144.533 348.267C146.667 350.133 148 352.267 147.467 353.067C147.067 353.867 147.333 354.933 148.133 355.467C149.2 356 149.333 355.867 148.8 354.933C146.8 351.6 149.2 353.6 151.467 356.933C153.2 359.6 153.2 360.267 151.867 359.333C150.8 358.533 151.467 359.467 153.333 361.2C155.2 362.933 155.733 363.867 154.667 363.333C153.6 362.8 154.4 363.867 156.533 365.6C158.667 367.467 160 369.6 159.467 370.4C159.067 371.2 159.333 372.267 160.133 372.8C161.2 373.333 161.333 373.2 160.8 372.267C158.8 368.933 161.2 370.933 163.467 374.267C165.2 376.933 165.2 377.6 163.867 376.667C162.8 375.867 163.467 376.8 165.333 378.533C167.2 380.267 167.733 381.2 166.667 380.667C165.6 380.133 166.133 381.067 168 382.667C169.867 384.267 170.4 385.2 169.333 384.667C168.267 384.133 169.067 385.2 171.2 386.933C173.333 388.8 174.667 390.933 174.133 391.733C173.733 392.533 174 393.6 174.8 394.133C175.867 394.667 176 394.533 175.467 393.6C173.467 390.4 175.733 392.133 178 395.467C179.6 397.867 179.733 398.667 178.533 398C177.467 397.467 178.133 398.4 180 400C181.867 401.6 182.4 402.533 181.333 402C180.267 401.467 181.067 402.533 183.2 404.267C185.333 406.133 186.667 408.267 186.133 409.067C185.733 409.867 186 410.933 186.8 411.467C187.867 412 188 411.867 187.467 410.933C185.467 407.6 187.867 409.6 190.133 412.933C191.867 415.6 191.867 416.267 190.533 415.333C189.467 414.533 190.133 415.467 192 417.2C193.867 418.933 194.4 419.867 193.333 419.333C192.267 418.8 193.067 419.867 195.2 421.6C197.333 423.467 198.667 425.6 198.133 426.4C197.733 427.2 198 428.267 198.8 428.8C199.867 429.333 200 429.2 199.467 428.267C197.467 424.933 199.867 426.933 202.133 430.267C203.867 432.933 203.867 433.6 202.533 432.667C201.467 431.867 202.133 432.8 204 434.533C205.867 436.267 206.4 437.2 205.333 436.667C204.267 436.133 205.067 437.2 207.2 438.933C209.333 440.8 210.667 442.933 210.133 443.733C209.733 444.533 210 445.6 210.8 446.133C211.867 446.667 212 446.533 211.467 445.6C209.467 442.267 211.867 444.267 214.133 447.6C215.867 450.267 215.867 450.933 214.533 450C213.467 449.2 214.133 450.133 216 451.867C217.867 453.6 218.4 454.533 217.333 454C216.267 453.467 217.067 454.533 219.2 456.267C221.333 458.133 222.667 460.267 222.133 461.067C221.733 461.867 222 462.933 222.8 463.467C223.867 464 224 463.867 223.467 462.933C221.467 459.6 223.867 461.6 226.133 464.933C227.867 467.6 227.867 468.267 226.533 467.333C225.467 466.533 226.133 467.467 228 469.2C229.867 470.933 230.4 471.867 229.333 471.333C228.267 470.8 228.8 471.733 230.667 473.333C232.533 474.933 233.067 475.867 232 475.333C230.933 474.8 231.733 475.867 233.867 477.6C236 479.467 237.333 481.6 236.8 482.4C236.4 483.2 236.667 484.267 237.467 484.8C238.533 485.333 238.667 485.2 238.133 484.267C236.133 481.067 238.4 482.8 240.667 486.133C242.267 488.533 242.4 489.333 241.2 488.667C240.133 488.133 240.8 489.067 242.667 490.667C244.533 492.267 245.067 493.2 244 492.667C242.933 492.133 243.733 493.2 245.867 494.933C248 496.8 249.333 498.933 248.8 499.733C248.4 500.533 248.667 501.6 249.467 502.133C250.533 502.667 250.667 502.533 250.133 501.6C248.133 498.267 250.533 500.267 252.8 503.6C254.533 506.267 254.533 506.933 253.2 506C252.133 505.2 252.8 506.133 254.667 507.867C256.533 509.6 257.067 510.533 256 510C254.933 509.467 255.733 510.533 257.867 512.267C260 514.133 261.333 516.267 260.8 517.067C260.4 517.867 260.667 518.933 261.467 519.467C262.533 520 262.667 519.867 262.133 518.933C260.133 515.6 262.533 517.6 264.8 520.933C266.533 523.6 266.533 524.267 265.2 523.333C264.133 522.533 264.8 523.467 266.667 525.2C268.533 526.933 269.067 527.867 268 527.333C266.933 526.8 267.733 527.867 269.867 529.6C272 531.467 273.333 533.6 272.8 534.4C272.4 535.2 272.667 536.267 273.467 536.8C274.533 537.333 274.667 537.2 274.133 536.267C272.133 532.933 274.533 534.933 276.8 538.267C278.533 540.933 278.533 541.6 277.2 540.667C276.133 539.867 276.8 540.8 278.667 542.533C280.533 544.267 281.067 545.2 280 544.667C278.933 544.133 279.6 545.067 281.467 546.8C283.333 548.533 285.733 551.2 286.8 552.667C288.533 555.2 288.533 555.2 286 553.333C283.467 551.467 283.467 551.467 285.2 553.6C286.8 555.733 290.133 556 320.133 556H353.333V336.933V118H250.667H148.133L151.6 120.8C153.467 122.267 154.667 124.267 154.133 125.067C153.733 125.867 154 126.933 154.8 127.467C155.867 128.133 156 127.867 155.333 126.667C154.533 125.467 154.8 125.2 155.867 125.867C156.8 126.533 157.2 127.733 156.8 128.8C156.4 129.733 156.8 130.933 157.6 131.467C158.533 132.133 158.667 131.733 158 130.667C157.2 129.467 157.467 129.2 158.533 129.867C159.467 130.533 159.867 131.733 159.467 132.8C159.067 133.733 159.467 134.933 160.267 135.467C161.2 136 161.333 135.867 160.8 134.933C158.8 131.733 161.067 133.467 163.333 136.8C164.933 139.2 165.067 140 163.867 139.333C162.8 138.8 163.467 139.733 165.333 141.333C167.2 142.933 167.733 143.867 166.667 143.333C165.6 142.8 166.133 143.733 168 145.333C169.867 146.933 170.4 147.867 169.333 147.333C168.267 146.8 169.067 147.867 171.2 149.6C173.333 151.467 174.667 153.6 174.133 154.4C173.733 155.2 174 156.267 174.8 156.8C175.867 157.467 176 157.2 175.333 156C174.533 154.8 174.8 154.533 175.867 155.2C176.8 155.867 177.2 157.067 176.8 158.133C176.4 159.067 176.8 160.267 177.6 160.8C178.533 161.467 178.667 161.067 178 160C177.2 158.8 177.467 158.533 178.533 159.2C179.467 159.867 179.867 161.067 179.467 162.133C179.067 163.067 179.467 164.267 180.267 164.8C181.2 165.333 181.333 165.2 180.8 164.267C178.8 161.067 181.067 162.8 183.333 166.133C184.933 168.533 185.067 169.333 183.867 168.667C182.8 168.133 183.467 169.067 185.333 170.667C187.2 172.267 187.733 173.2 186.667 172.667C185.6 172.133 186.133 173.067 188 174.667C189.867 176.267 190.4 177.2 189.333 176.667C188.267 176.133 189.067 177.2 191.2 178.933C193.333 180.8 194.667 182.933 194.133 183.733C193.733 184.533 194 185.6 194.8 186.133C195.867 186.8 196 186.533 195.333 185.333C194.667 184.133 194.8 183.867 195.867 184.533C196.667 185.067 197.2 186.4 197.067 187.467C196.667 189.2 202.667 189.467 240.4 189.333L284 189.2V307.333C284 392.667 283.6 425.333 282.533 425.333C281.733 425.333 281.333 424.4 281.733 423.333C282.267 422.267 281.067 420.267 278.933 418.667C276.933 417.067 276.267 416.133 277.333 416.667C278.4 417.2 277.867 416.267 276 414.667C274.133 413.067 273.6 412.133 274.667 412.667C275.733 413.2 275.067 412.267 273.2 410.533C271.333 408.8 268.933 406.133 267.867 404.667C266.267 402.267 266.267 402.133 268 403.333C269.2 404 268.533 403.2 266.667 401.467C264.8 399.733 264.267 398.8 265.333 399.333C266.4 399.867 265.867 398.933 264 397.333C262.133 395.733 261.6 394.8 262.667 395.333C263.733 395.867 262.933 394.8 260.8 393.067C258.667 391.2 257.333 389.067 257.867 388.267C258.267 387.467 258 386.4 257.2 385.867C256.133 385.333 256 385.467 256.533 386.4C258.533 389.6 256.267 387.867 254 384.533C252.4 382.133 252.267 381.333 253.467 382C254.533 382.533 253.867 381.6 252 380C250.133 378.4 249.6 377.467 250.667 378C251.733 378.533 250.933 377.467 248.8 375.733C246.667 373.867 245.333 371.733 245.867 370.933C246.267 370.133 246 369.067 245.2 368.533C244.133 368 244 368.133 244.533 369.067C246.533 372.267 244.267 370.533 242 367.2C240.4 364.8 240.267 364 241.467 364.667C242.533 365.2 241.867 364.267 240 362.667C238.133 361.067 237.6 360.133 238.667 360.667C239.733 361.2 238.933 360.133 236.8 358.4C234.667 356.533 233.333 354.4 233.867 353.6C234.267 352.8 234 351.733 233.2 351.2C232.133 350.667 232 350.8 232.533 351.733C234.533 355.067 232.133 353.067 229.867 349.6C228.133 347.067 228.133 346.4 229.467 347.333C230.533 348 229.867 347.2 228 345.467C226.133 343.733 225.6 342.8 226.667 343.333C227.733 343.867 226.933 342.8 224.8 341.067C222.667 339.2 221.333 337.067 221.867 336.267C222.267 335.467 222 334.4 221.2 333.867C220.133 333.333 220 333.467 220.533 334.4C222.533 337.733 220.133 335.733 217.867 332.267C216.133 329.733 216.133 329.067 217.467 330C218.533 330.667 217.867 329.867 216 328.133C214.133 326.4 213.6 325.467 214.667 326C215.733 326.533 214.933 325.467 212.8 323.733C210.667 321.867 209.333 319.733 209.867 318.933C210.267 318.133 210 317.067 209.2 316.533C208.133 316 208 316.133 208.533 317.067C210.533 320.4 208.133 318.4 205.867 314.933C204.133 312.4 204.133 311.733 205.467 312.667C206.533 313.333 205.867 312.533 204 310.8C202.133 309.067 201.6 308.133 202.667 308.667C203.733 309.2 202.933 308.133 200.8 306.4C198.667 304.533 197.333 302.4 197.867 301.6C198.267 300.8 198 299.733 197.2 299.2C196.133 298.667 196 298.8 196.533 299.733C198.533 303.067 196.133 301.067 193.867 297.6C192.133 295.067 192.133 294.4 193.467 295.333C194.533 296 193.867 295.2 192 293.467C190.133 291.733 189.6 290.8 190.667 291.333C191.733 291.867 190.933 290.8 188.8 289.067C186.667 287.2 185.333 285.067 185.867 284.267C186.267 283.467 186 282.4 185.2 281.867C184.133 281.333 184 281.467 184.533 282.4C186.533 285.733 184.133 283.733 181.867 280.267C180.133 277.733 180.133 277.067 181.467 278C182.533 278.667 181.867 277.867 180 276.133C178.133 274.4 177.6 273.467 178.667 274C179.733 274.533 178.933 273.467 176.8 271.733C174.667 269.867 173.333 267.733 173.867 266.933C174.267 266.133 174 265.067 173.2 264.533C172.133 264 172 264.133 172.533 265.067C174.533 268.4 172.133 266.4 169.867 262.933C168.133 260.4 168.133 259.733 169.467 260.667C170.533 261.333 169.867 260.533 168 258.8C166.133 257.067 165.6 256.133 166.667 256.667C167.733 257.2 166.933 256.133 164.8 254.4C162.667 252.533 161.333 250.4 161.867 249.6C162.267 248.8 162 247.733 161.2 247.2C160.133 246.667 160 246.8 160.533 247.733C162.533 251.067 160.133 249.067 157.867 245.6C156.133 243.067 156.133 242.4 157.467 243.333C158.533 244 157.867 243.2 156 241.467C154.133 239.733 153.6 238.8 154.667 239.333C155.733 239.867 154.933 238.8 152.8 237.067C150.667 235.2 149.333 233.067 149.867 232.267C150.267 231.467 150 230.4 149.2 229.867C148.133 229.333 148 229.467 148.533 230.4C150.533 233.733 148.133 231.733 145.867 228.267C144.133 225.733 144.133 225.067 145.467 226C146.533 226.667 145.867 225.867 144 224.133C142.133 222.4 141.6 221.467 142.667 222C143.733 222.533 142.933 221.467 140.8 219.733C138.667 217.867 137.333 215.733 137.867 214.933C138.267 214.133 138 213.067 137.2 212.533C136.133 212 136 212.133 136.533 213.067C138.533 216.4 136.133 214.4 133.867 210.933C132.133 208.4 132.133 207.733 133.467 208.667C134.533 209.333 133.867 208.533 132 206.8C130.133 205.067 129.6 204.133 130.667 204.667C131.733 205.2 130.933 204.133 128.8 202.4C126.667 200.533 125.333 198.4 125.867 197.6C126.267 196.8 126 195.733 125.2 195.2C124.133 194.667 124 194.8 124.533 195.733C126.533 199.067 124.133 197.067 121.867 193.6C120.133 191.067 120.133 190.4 121.467 191.333C122.533 192 121.867 191.2 120 189.467C118.133 187.733 117.6 186.8 118.667 187.333C119.733 187.867 119.2 186.933 117.333 185.333C115.467 183.733 114.933 182.8 116 183.333C117.067 183.867 116.267 182.8 114.133 181.067C112 179.2 110.667 177.067 111.2 176.267C111.6 175.467 111.333 174.4 110.533 173.867C109.467 173.333 109.333 173.467 109.867 174.4C111.867 177.6 109.6 175.867 107.333 172.533C105.733 170.133 105.6 169.333 106.8 170C107.867 170.533 107.2 169.6 105.333 168C103.467 166.4 102.933 165.467 104 166C105.067 166.533 104.267 165.467 102.133 163.733C100 161.867 98.6667 159.733 99.2 158.933C99.6 158.133 99.3333 157.067 98.5333 156.533C97.4667 156 97.3333 156.133 97.8667 157.067C99.8667 160.267 97.6 158.533 95.3333 155.2C93.7333 152.8 93.6 152 94.8 152.667C95.8667 153.2 95.2 152.267 93.3333 150.667C91.4667 149.067 90.9333 148.133 92 148.667C93.0667 149.2 92.2667 148.133 90.1333 146.4C88 144.533 86.6667 142.4 87.2 141.6C87.6 140.8 87.3333 139.733 86.5333 139.2C85.4667 138.667 85.3333 138.8 85.8667 139.733C87.8667 142.933 85.6 141.2 83.3333 137.867C81.7333 135.467 81.6 134.667 82.8 135.333C83.8667 135.867 83.2 134.933 81.3333 133.333C79.4667 131.733 78.9333 130.8 80 131.333C81.0667 131.867 80.2667 130.8 78.1333 129.067C76 127.2 74.6667 125.067 75.2 124.267C75.6 123.467 75.3333 122.4 74.5333 121.867C73.4667 121.2 73.3333 121.467 74 122.667C74.8 123.867 74.5333 124.133 73.4667 123.467C72.5333 122.8 72.1333 121.6 72.5333 120.533C72.9333 119.6 72.8 118.533 72.2667 118.4C71.7333 118.133 56.8 118.133 39.0667 118.4Z" fill="white"/>
<path d="M583.067 118.4L462.8 118.667L462.4 154.4L462 190L542 189.6L622 189.333V272.533C622 320.667 621.467 355.467 620.8 355.067C620.133 354.533 620 356.4 620.533 359.333C621.2 362.8 621.067 364 620 363.333C619.067 362.667 618.8 363.6 619.467 365.867C620 368.133 619.733 369.333 618.667 369.333C617.733 369.333 617.467 370.4 618 372C618.533 373.467 618.267 374.667 617.467 374.667C616.667 374.667 616.4 375.6 616.8 376.667C617.333 377.733 616.933 378.667 616.133 378.667C615.333 378.667 615.067 379.6 615.467 380.667C616 381.733 615.6 382.667 614.8 382.667C614 382.667 613.733 383.6 614.267 384.933C614.933 386.533 614.667 386.8 613.333 386C612 385.2 611.733 385.467 612.4 387.067C612.8 388.4 612.667 389.333 611.867 389.333C611.067 389.333 610.8 389.867 611.2 390.533C612.267 392.267 610.667 396.133 609.2 395.2C608.533 394.8 608.4 395.467 608.8 396.533C609.333 397.733 608 400 605.733 402.133C603.733 404.133 602.8 405.333 603.733 404.8C606.533 403.2 605.467 405.333 601.733 408.933C599.6 410.933 598.8 412 599.867 411.333C601.067 410.667 600.8 411.467 599.333 413.867C597.067 417.2 594.8 418.933 596.8 415.733C597.333 414.8 597.2 414.667 596.133 415.2C595.333 415.733 595.067 416.8 595.467 417.6C596 418.4 591.867 423.2 586.533 428.533C581.067 433.733 578.667 436.133 581.2 434C583.733 431.733 585.333 430.667 584.933 431.467C584.4 432.4 580.267 436.267 575.733 440.133C571.067 444 568.267 446 569.333 444.533C570.4 443.067 569.333 444 566.8 446.533C564.267 449.2 562.8 450.4 563.467 449.333C564.133 448.133 563.2 448.8 561.333 450.667C559.467 452.533 558.533 453.2 559.2 452C559.867 450.933 558.667 452 556.267 454.267C552 458.8 549.867 460 551.333 456.933C551.867 456.133 550.933 456.8 549.333 458.667C547.733 460.533 546.8 461.067 547.333 460C547.867 458.667 547.6 458.8 546.267 460.267C545.2 461.6 544 462.267 543.6 461.733C543.067 461.333 542.667 461.6 542.667 462.533C542.667 463.467 542.133 463.733 541.333 463.333C540.667 462.933 540 463.2 540 464C540 464.8 539.467 465.067 538.667 464.667C538 464.267 537.333 464.533 537.333 465.333C537.333 466.133 536.8 466.4 536 466C535.333 465.6 534.667 465.867 534.667 466.667C534.667 467.467 534.133 467.733 533.333 467.333C532.667 466.933 532 467.067 532 467.867C532 468.667 531.067 468.8 529.733 468.4C528.133 467.733 527.867 468 528.667 469.333C529.467 470.667 529.2 470.933 527.6 470.267C526.267 469.733 525.333 470 525.333 470.8C525.333 471.6 524.4 471.867 523.2 471.467C522 470.933 521.467 471.2 522.133 472.133C522.667 473.2 522 473.333 520 472.667C517.867 472 517.333 472.133 518 473.333C518.667 474.533 518.133 474.667 516 474C513.733 473.333 513.2 473.467 514 474.8C514.8 476 514.267 476.267 512.267 475.733C510.667 475.2 509.333 475.467 509.333 476.267C509.333 476.933 508.133 477.067 506.667 476.667C505.067 476.133 504 476.4 504 477.333C504 478.133 502.667 478.4 500.533 477.867C497.733 477.2 497.2 477.333 498 478.667C498.8 480 498.133 480.267 494.933 479.6C492.533 479.067 490.667 479.333 490.667 480C490.667 480.8 488.133 480.933 484.4 480.4C479.6 479.733 478.533 480 479.333 481.333C480.133 482.667 478.4 482.8 471.2 482L462 481.067V518.533V556H469.733C474.533 556 477.333 555.467 477.333 554.533C477.333 553.467 479.867 553.2 486.133 553.867C492.667 554.533 494.667 554.4 493.867 553.2C493.2 552 494.4 551.867 498.4 552.533C502.133 553.067 504 552.933 504 551.867C504 550.933 505.467 550.8 508 551.333C510.667 551.867 512 551.733 512 550.667C512 549.6 513.2 549.333 515.333 549.867C517.467 550.4 518.667 550.133 518.667 549.2C518.667 548.267 519.867 548 522.133 548.533C524.533 549.2 525.333 548.933 524.533 547.867C523.867 546.667 524.667 546.533 527.2 547.2C529.867 547.867 530.667 547.733 529.867 546.533C529.2 545.333 530 545.2 532.533 545.867C535.2 546.533 536 546.267 535.333 545.2C534.667 544.133 535.2 544 537.333 544.667C539.6 545.333 540.133 545.2 539.333 543.867C538.533 542.667 539.067 542.4 541.067 542.933C542.667 543.467 544 543.2 544 542.4C544 541.6 544.933 541.333 546 541.867C547.067 542.267 548 542 548 541.2C548 540.4 548.933 540.133 550.133 540.533C551.333 541.067 551.867 540.8 551.2 539.867C550.667 538.8 551.333 538.667 553.333 539.333C555.6 540 556.133 539.867 555.333 538.533C554.533 537.333 554.933 537.067 556.4 537.733C557.733 538.133 558.667 538 558.667 537.333C558.667 536.667 559.6 536.533 560.933 536.933C562.267 537.467 562.8 537.2 562.267 536.4C561.2 534.8 564.933 532.933 566.8 534.133C567.467 534.533 568 534.133 568 533.333C568 532.533 568.533 532.133 569.2 532.667C570.8 533.6 577.467 530.667 576.667 529.333C576.267 528.667 576.933 527.867 578.133 527.467C579.333 526.933 579.867 527.2 579.2 528.133C578.667 529.2 579.2 529.067 581.2 528.133C582.667 527.2 584 526 584 525.2C584 524.4 584.667 524.267 585.333 524.667C586.133 525.067 586.667 524.933 586.667 524.133C586.667 523.333 588 522.133 589.467 521.2C591.733 520 592.133 520.133 591.333 521.6C590.667 522.533 591.733 521.733 593.733 519.733C597.333 515.867 599.467 514.8 597.867 517.6C597.467 518.533 598.533 517.6 600.267 515.467C602.133 513.333 604.267 512 605.067 512.533C605.867 512.933 606.933 512.667 607.467 511.867C608.133 510.8 607.867 510.667 606.667 511.333C605.467 512.133 605.2 511.867 605.867 510.8C606.533 509.867 607.733 509.467 608.667 509.867C609.733 510.267 611.2 509.467 612.267 508.267C613.867 506.133 613.733 506.133 611.333 508C608.8 509.867 608.8 509.867 610.533 507.6C611.6 506.267 613.2 505.467 614.133 505.867C615.067 506.267 616.533 505.467 617.6 504.267C619.2 502.267 619.067 502.133 617.067 503.867C615.733 504.8 614.667 505.333 614.667 505.067C614.667 504.667 617.2 502.4 620.4 500C623.467 497.467 625.067 496.667 624 498.133C622.933 499.467 625.467 496.933 629.733 492.4C634 487.867 642.4 479.467 648.4 473.733C654.4 468 658.133 464.267 656.533 465.333C655.067 466.4 656.267 464.933 659.2 462.133C662.267 459.2 663.733 457.467 662.667 458.133C661.467 458.8 662.133 457.867 664 456C665.867 454.133 666.533 453.2 665.467 454C664.133 454.933 664.267 454.267 665.867 451.6C668.133 448.267 670.533 446.267 668.533 449.6C668 450.533 668.133 450.667 669.067 450.133C669.867 449.6 670.267 448.4 669.867 447.467C669.467 446.4 669.867 445.2 670.8 444.533C671.867 443.867 672.133 444.133 671.333 445.333C670.667 446.533 670.8 446.8 671.867 446.133C672.667 445.6 672.933 444.533 672.533 443.733C672 442.933 673.067 441.067 674.8 439.733C676.533 438.267 677.2 437.467 676.267 438C674.933 438.667 675.067 437.867 676.533 434.8C677.733 432.533 679.333 430.667 680.133 430.667C680.933 430.667 681.067 430 680.667 429.333C680.267 428.533 680.533 428 681.333 428C682.133 428 682.4 427.333 682 426.667C681.6 425.867 681.867 425.333 682.667 425.333C683.467 425.333 683.733 424.667 683.333 424C682.933 423.2 683.2 422.667 684 422.667C684.8 422.667 685.2 422.133 684.8 421.467C683.733 419.733 685.333 415.867 686.8 416.8C687.467 417.2 687.6 416.533 687.2 415.467C686.8 414.267 687.067 413.333 687.867 413.333C688.667 413.333 688.933 412.4 688.4 411.067C687.867 409.6 688 409.2 689.067 409.867C690.133 410.533 690.4 410.133 689.867 408.8C689.467 407.6 689.733 406.667 690.533 406.667C691.333 406.667 691.6 405.733 691.067 404.4C690.4 402.933 690.667 402.533 691.867 403.333C693.2 404 693.333 403.6 692.667 401.467C692.133 399.867 692.4 398.667 693.2 398.667C694 398.667 694.267 397.733 693.867 396.667C693.333 395.6 693.733 394.667 694.667 394.667C695.6 394.667 695.867 393.6 695.333 391.867C694.667 389.867 694.8 389.333 695.867 390C696.933 390.667 697.2 389.867 696.533 387.2C695.867 384.667 696 383.867 697.2 384.533C698.267 385.333 698.533 384.533 697.867 382.133C697.333 380 697.6 378.667 698.533 378.667C699.333 378.667 699.6 377.067 699.067 374.4C698.533 371.467 698.667 370.533 699.867 371.2C700.933 372 701.2 370.667 700.533 366.533C699.867 362.267 700 361.2 701.2 361.867C702.4 362.667 702.667 360.933 701.867 354.667C701.2 348.933 701.467 346.133 702.533 345.467C703.6 344.8 703.867 315.333 703.733 231.2L703.333 118L583.067 118.4Z" fill="white"/>
<path d="M1305.33 336.933V556H1340.67H1376L1375.73 491.6L1375.33 427.333H1428.27H1481.2L1482.67 430.4C1483.6 432.667 1483.6 433.2 1482.53 432.667C1481.73 432.133 1482.13 433.6 1483.2 435.867C1484.4 438.133 1486 440 1486.8 440C1487.6 440 1487.73 440.533 1487.33 441.333C1486.93 442 1487.2 442.667 1488 442.667C1488.8 442.667 1489.07 443.2 1488.67 444C1488.27 444.667 1488.53 445.333 1489.33 445.333C1490.13 445.333 1490.4 445.867 1490 446.667C1489.6 447.333 1489.87 448 1490.8 448C1491.73 448 1492.13 448.4 1491.73 448.8C1491.2 449.2 1492.13 450.8 1493.6 452.267C1495.07 453.733 1495.87 455.733 1495.47 456.8C1494.93 458.133 1495.2 458.4 1496.27 457.867C1497.33 457.2 1497.47 457.6 1496.93 459.2C1496.27 460.667 1496.53 461.2 1497.6 460.533C1498.67 459.867 1498.8 460.267 1498.27 461.867C1497.6 463.333 1497.87 463.867 1498.93 463.2C1500 462.533 1500.13 462.933 1499.6 464.533C1498.93 466 1499.2 466.533 1500.27 465.867C1501.33 465.2 1501.47 465.6 1500.93 467.2C1500.4 468.4 1500.53 469.2 1501.2 468.8C1501.73 468.4 1502.93 469.6 1503.87 471.467C1504.93 473.733 1504.93 474.533 1503.87 474C1503.07 473.467 1503.47 474.933 1504.53 477.2C1505.73 479.467 1507.33 481.333 1508.13 481.333C1508.93 481.333 1509.07 482 1508.67 482.667C1508.27 483.467 1508.53 484 1509.33 484C1510.13 484 1510.4 484.533 1510 485.333C1509.6 486 1509.87 486.667 1510.67 486.667C1511.47 486.667 1511.73 487.2 1511.33 488C1510.93 488.667 1511.2 489.333 1512.13 489.333C1513.07 489.333 1513.47 489.733 1513.07 490.133C1512.53 490.533 1513.47 492.133 1514.93 493.6C1516.4 495.067 1517.2 497.067 1516.8 498.133C1516.27 499.467 1516.53 499.733 1517.6 499.2C1518.67 498.533 1518.8 498.933 1518.27 500.533C1517.6 502 1517.87 502.533 1518.93 501.867C1520 501.2 1520.13 501.6 1519.6 503.2C1518.93 504.667 1519.2 505.2 1520.27 504.533C1521.33 503.867 1521.47 504.267 1520.93 505.867C1520.4 507.067 1520.53 507.867 1521.2 507.467C1521.73 507.067 1522.93 508.267 1523.87 510.133C1524.8 512.4 1524.93 513.2 1523.87 512.667C1523.07 512.133 1523.73 514.133 1525.2 517.2C1526.8 520.267 1528.67 522.667 1529.47 522.667C1530.27 522.667 1530.4 523.2 1530 524C1529.6 524.667 1529.87 525.333 1530.67 525.333C1531.47 525.333 1531.73 526 1531.33 526.667C1530.93 527.467 1531.2 528 1532 528C1532.8 528 1533.07 528.533 1532.67 529.333C1532.27 530 1532.53 530.667 1533.47 530.667C1534.4 530.667 1534.8 531.067 1534.27 531.467C1533.87 531.867 1534.8 533.467 1536.27 534.933C1537.73 536.4 1538.53 538.4 1538.13 539.467C1537.6 540.8 1537.87 541.067 1538.93 540.533C1540 539.867 1540.13 540.267 1539.6 541.867C1538.93 543.333 1539.2 543.867 1540.27 543.2C1541.33 542.533 1541.47 542.933 1540.93 544.533C1540.27 546 1540.53 546.533 1541.6 545.867C1542.67 545.2 1542.8 545.6 1542.27 547.2C1541.73 548.4 1541.87 549.2 1542.53 548.8C1543.07 548.4 1544.27 549.6 1545.2 551.467C1546.27 554 1546.27 554.667 1545.2 553.867C1544.13 553.333 1544 553.467 1544.53 554.4C1545.2 555.6 1556.67 556 1585.47 556C1607.33 556 1625.33 555.733 1625.33 555.333C1625.33 553.333 1621.07 546.667 1619.87 546.667C1619.07 546.667 1618.93 546 1619.33 545.333C1619.73 544.667 1619.47 544 1618.67 544C1617.87 544 1617.6 543.333 1618 542.667C1618.4 541.867 1618.13 541.333 1617.2 541.333C1616.27 541.333 1615.87 540.933 1616.4 540.533C1616.8 540.133 1615.87 538.533 1614.4 537.067C1612.93 535.6 1612.13 533.6 1612.53 532.533C1613.07 531.2 1612.8 530.933 1611.73 531.467C1610.67 532.133 1610.53 531.733 1611.07 530.133C1611.73 528.667 1611.47 528.133 1610.4 528.8C1609.33 529.467 1609.2 529.067 1609.73 527.467C1610.27 526.267 1610.13 525.467 1609.47 525.867C1608.93 526.267 1607.73 525.067 1606.8 523.2C1605.87 520.933 1605.73 520.133 1606.8 520.667C1607.6 521.2 1606.93 519.2 1605.47 516.133C1603.87 513.067 1602 510.667 1601.2 510.667C1600.4 510.667 1600.27 510 1600.67 509.333C1601.07 508.667 1600.8 508 1600 508C1599.2 508 1598.93 507.333 1599.33 506.667C1599.73 505.867 1599.47 505.333 1598.53 505.333C1597.6 505.333 1597.2 504.933 1597.73 504.533C1598.13 504.133 1597.2 502.533 1595.73 501.067C1594.27 499.6 1593.47 497.6 1593.87 496.533C1594.4 495.2 1594.13 494.933 1593.07 495.467C1592 496.133 1591.87 495.733 1592.4 494.133C1593.07 492.667 1592.8 492.133 1591.73 492.8C1590.67 493.467 1590.53 493.067 1591.07 491.467C1591.6 490.267 1591.47 489.467 1590.8 489.867C1590.27 490.267 1589.07 489.067 1588.13 487.2C1587.2 484.933 1587.07 484.133 1588.13 484.667C1588.93 485.2 1588.27 483.2 1586.8 480.133C1585.2 477.067 1583.33 474.667 1582.53 474.667C1581.73 474.667 1581.6 474 1582 473.333C1582.4 472.533 1582.13 472 1581.33 472C1580.53 472 1580.27 471.333 1580.67 470.667C1581.07 469.867 1580.8 469.333 1579.87 469.333C1578.93 469.333 1578.53 468.933 1578.93 468.533C1579.47 468.133 1578.53 466.533 1577.07 465.067C1575.6 463.6 1574.8 461.6 1575.2 460.533C1575.73 459.2 1575.47 458.933 1574.4 459.467C1573.33 460.133 1573.2 459.733 1573.73 458.133C1574.4 456.667 1574.13 456.133 1573.07 456.8C1572 457.467 1571.87 457.067 1572.4 455.467C1572.93 454.267 1572.8 453.467 1572.13 453.867C1571.6 454.267 1570.4 453.067 1569.47 451.2C1568.53 448.933 1568.4 448.133 1569.47 448.667C1570.27 449.2 1569.6 447.2 1568.13 444.133C1566.53 441.067 1564.67 438.667 1563.87 438.667C1563.07 438.667 1562.93 438 1563.33 437.333C1563.73 436.533 1563.47 436 1562.67 436C1561.87 436 1561.6 435.333 1562 434.667C1562.4 433.867 1562.13 433.333 1561.2 433.333C1560.27 433.333 1559.87 432.933 1560.27 432.533C1560.8 432.133 1559.87 430.533 1558.4 429.067C1556.93 427.6 1556.13 425.6 1556.53 424.533C1557.07 423.2 1556.8 422.933 1555.73 423.467C1554.67 424.133 1554.53 423.733 1555.07 422.133C1555.73 420.667 1555.47 420.133 1554.4 420.8C1553.33 421.467 1553.2 421.067 1553.73 419.467C1554.27 418.267 1554.13 417.467 1553.47 417.867C1552.93 418.267 1551.73 417.067 1550.8 415.2C1550 413.333 1549.87 412.133 1550.53 412.533C1551.2 412.933 1551.47 412.267 1551.2 411.067C1550.8 409.733 1551.47 407.467 1552.67 406C1553.87 404.533 1554.53 404.267 1554 405.333C1553.47 406.4 1554.27 405.867 1555.87 404C1557.33 402.133 1559.33 400.667 1560.4 400.667C1561.33 400.667 1567.2 395.467 1573.47 389.2C1580.27 382.4 1581.47 381.333 1576.67 386.533L1568.67 395.333L1577.6 386.8C1582.53 382 1586.27 377.733 1586 377.2C1585.6 376.667 1586.4 375.2 1587.73 373.733C1588.93 372.4 1589.47 372.133 1588.67 373.333C1587.47 375.067 1587.6 375.067 1589.6 373.467C1590.93 372.533 1591.73 371.2 1591.33 370.667C1590.93 370.133 1591.73 368.533 1593.07 367.067C1594.27 365.733 1594.8 365.467 1594 366.667C1592.8 368.4 1592.93 368.4 1594.93 366.933C1596.13 365.867 1596.93 364.4 1596.53 363.333C1596.13 362.4 1596.53 361.2 1597.47 360.533C1598.53 359.867 1598.8 360.133 1598 361.333C1597.33 362.533 1597.47 362.8 1598.53 362.133C1599.33 361.6 1599.6 360.533 1599.2 359.733C1598.67 358.933 1599.73 357.067 1601.47 355.733C1603.2 354.267 1603.73 353.467 1602.67 354C1601.33 354.533 1601.47 354.267 1602.93 352.933C1604.27 351.867 1604.93 350.667 1604.4 350.267C1604 349.733 1604.27 349.333 1605.2 349.333C1606.13 349.333 1606.4 348.667 1606 348C1605.6 347.2 1605.73 346.667 1606.53 346.667C1608.27 346.667 1612.4 338.933 1611.33 337.467C1610.27 335.6 1612.13 331.867 1613.73 332.933C1614.53 333.467 1614.8 332.933 1614.27 331.6C1613.2 328.667 1614.53 325.067 1616.27 326.133C1617.07 326.667 1617.33 325.867 1616.67 324.133C1616.13 322.4 1616.4 321.333 1617.33 321.333C1618.27 321.333 1618.53 320.267 1618 318.533C1617.33 316.4 1617.47 316 1618.67 316.667C1619.87 317.333 1620 316.933 1619.33 314.8C1618.8 313.2 1619.07 312 1619.87 312C1620.67 312 1620.93 310.4 1620.4 307.733C1619.73 304.533 1620 303.867 1621.33 304.667C1622.53 305.467 1622.8 304.667 1622 301.467C1621.47 298.933 1621.6 297.333 1622.53 297.333C1623.33 297.333 1623.6 294.933 1623.07 290.667C1622.53 286.133 1622.8 284 1623.87 284C1624.8 284 1625.33 280.267 1625.33 272.667C1625.33 265.067 1624.8 261.333 1623.87 261.333C1622.8 261.333 1622.53 259.067 1623.2 253.867C1623.87 248.4 1623.6 246.667 1622.53 247.467C1621.33 248.133 1621.2 247.2 1621.73 244.267C1622.27 241.6 1622 240 1621.2 240C1620.27 240 1620 238.667 1620.53 236.667C1621.07 234.667 1620.8 233.333 1620 233.333C1619.07 233.333 1618.8 232.267 1619.33 230.533C1620 228.4 1619.87 228 1618.53 228.667C1617.33 229.467 1617.07 228.933 1617.6 226.933C1618.13 225.333 1617.87 224 1617.07 224C1616.4 224 1616.27 222.667 1616.67 221.2C1617.33 219.067 1617.2 218.667 1615.87 219.333C1614.67 220.133 1614.4 219.733 1615.07 218.267C1615.6 216.933 1615.33 216 1614.53 216C1613.73 216 1613.47 215.067 1613.87 213.867C1614.4 212.667 1614.13 212.133 1613.2 212.8C1612.13 213.333 1612 212.667 1612.67 210.667C1613.2 208.8 1613.07 208 1612.27 208.533C1610.67 209.467 1608.93 205.6 1610.27 203.733C1610.8 202.8 1610.4 202.667 1609.33 203.333C1608 204.133 1607.73 203.867 1608.4 202.133C1609.07 200.667 1608.8 200.133 1607.73 200.8C1606.67 201.467 1606.53 201.067 1607.07 199.467C1607.6 198.267 1607.47 197.467 1606.8 197.867C1606.27 198.267 1605.07 197.067 1604.13 195.2C1602.93 192.533 1602.93 192 1604.27 192.667C1605.2 193.2 1604.53 192.267 1602.67 190.667C1600.8 189.067 1600.27 188.133 1601.33 188.667C1602.4 189.2 1601.87 188.267 1600 186.667C1598.13 185.067 1597.6 184.133 1598.67 184.667C1599.73 185.2 1599.2 184.267 1597.33 182.667C1595.47 181.067 1594.93 180.133 1596 180.667C1597.07 181.2 1596.13 180 1593.87 177.867C1591.73 175.733 1591.07 174.933 1592.53 176C1594.13 177.067 1591.33 174 1586.53 169.333C1581.73 164.533 1580.53 163.067 1583.87 166C1587.2 168.933 1584.93 166.133 1578.67 159.733C1572.53 153.333 1566.93 148.533 1566.4 148.8C1565.73 149.2 1563.07 147.2 1560.4 144.4C1557.73 141.6 1556 140.267 1556.8 141.333C1557.47 142.533 1556.53 141.867 1554.8 140C1553.07 138.133 1552.13 137.467 1552.53 138.267C1554.13 141.2 1552 140.133 1548.4 136.267C1546.4 134.267 1545.33 133.467 1545.87 134.4C1546.67 135.733 1546.13 135.733 1543.47 134.533C1541.6 133.6 1540.4 132.4 1540.93 131.6C1541.33 130.8 1541.07 130.667 1540.27 131.067C1538.27 132.4 1534.53 130.667 1535.6 128.933C1536.13 128.133 1535.6 127.867 1534.27 128.4C1532.93 128.8 1532 128.667 1532 127.867C1532 127.067 1531.47 126.933 1530.67 127.333C1530 127.733 1529.33 127.6 1529.33 126.8C1529.33 126 1528.4 125.733 1527.33 126.133C1526.27 126.667 1525.33 126.267 1525.33 125.467C1525.33 124.667 1524.4 124.4 1523.33 124.8C1522.27 125.333 1521.33 125.067 1521.33 124.267C1521.33 123.467 1520 123.2 1518.4 123.733C1516.4 124.267 1515.87 124 1516.67 122.8C1517.33 121.467 1516.93 121.333 1514.8 122C1513.07 122.533 1512 122.267 1512 121.333C1512 120.533 1510.67 120.267 1508.67 120.8C1506.67 121.333 1505.33 121.067 1505.33 120.133C1505.33 119.333 1503.87 119.067 1501.33 119.467C1499.2 120 1497.33 119.867 1497.33 119.2C1497.33 118.533 1455.33 118 1401.33 118H1305.33V336.933ZM1571.47 153.6L1575.33 158L1571.07 154.133C1566.93 150.4 1566 149.333 1567.07 149.333C1567.33 149.333 1569.2 151.333 1571.47 153.6ZM1468 190.8C1468 191.867 1471.47 192.133 1480 191.467C1488.67 190.667 1492 190.933 1492 192C1492 193.067 1493.33 193.2 1496 192.667C1498.67 192.133 1500 192.267 1500 193.333C1500 194.267 1501.07 194.533 1502.67 194C1504.27 193.467 1505.33 193.733 1505.33 194.667C1505.33 195.6 1506.27 196 1507.33 195.467C1508.4 195.067 1509.33 195.333 1509.33 196C1509.33 196.667 1510.27 196.8 1511.6 196.4C1513.2 195.733 1513.47 196 1512.67 197.333C1511.87 198.667 1512.13 198.933 1513.73 198.267C1515.07 197.867 1516 198 1516 198.667C1516 199.333 1517.33 200.533 1518.8 201.467C1520.93 202.533 1521.47 202.533 1520.67 201.333C1518.67 198 1526 203.2 1533.33 210.133C1540.13 216.667 1547.73 227.067 1544 224.667C1542.8 223.867 1542.67 224.267 1543.87 226.533C1544.8 228 1546 229.333 1546.8 229.333C1547.6 229.333 1547.73 229.867 1547.33 230.667C1546.93 231.333 1547.2 232 1548 232C1548.93 232 1549.2 232.933 1548.8 234.133C1548.27 235.333 1548.53 235.867 1549.47 235.2C1550.53 234.667 1550.67 235.333 1550 237.333C1549.33 239.467 1549.47 240 1550.67 239.333C1551.87 238.667 1552 239.067 1551.33 241.2C1550.8 242.933 1551.07 244 1552 244C1552.8 244 1553.07 245.333 1552.53 247.467C1551.87 250.133 1552 250.8 1553.2 250.133C1554.4 249.333 1554.67 250.267 1554 253.867C1553.47 256.667 1553.6 258.667 1554.27 258.667C1555.07 258.667 1555.6 263.867 1555.47 270.533C1555.47 277.2 1554.93 282.133 1554.27 281.733C1553.6 281.333 1553.47 282.8 1554 285.2C1554.53 288 1554.4 289.333 1553.33 289.333C1552.4 289.333 1552.13 290.4 1552.67 292.133C1553.33 294.267 1553.2 294.667 1552 294C1550.8 293.333 1550.67 293.733 1551.33 295.867C1551.87 297.467 1551.6 298.667 1550.8 298.667C1550 298.667 1549.73 299.6 1550.13 300.667C1550.67 301.733 1550.27 302.667 1549.33 302.667C1548.53 302.667 1548.13 303.2 1548.53 303.867C1549.73 305.733 1547.87 309.467 1546.4 308.533C1545.6 308 1545.2 308.4 1545.6 309.467C1546 310.533 1545.33 312.133 1544.13 313.067C1542.93 314.133 1542.8 314.4 1543.73 314C1548.27 311.6 1540.53 321.867 1529.33 333.2C1517.47 345.067 1514.93 347.067 1516.67 343.6C1517.2 342.8 1516.8 342.933 1515.73 344.133C1514.8 345.333 1513.2 346 1512.13 345.6C1511.07 345.333 1510.67 345.6 1511.07 346.267C1512.27 348.133 1505.6 350.933 1502.4 349.867C1500.53 349.333 1500 349.6 1500.67 350.533C1501.33 351.6 1500.53 351.867 1498.13 351.2C1496.27 350.8 1494.67 350.933 1494.67 351.6C1494.67 352.4 1489.33 352.667 1481.33 352.267C1471.73 351.867 1467.47 352.133 1466 353.333C1464.4 354.667 1454.13 354.933 1419.6 354.533L1375.33 354V271.6V189.333H1421.73C1455.2 189.333 1468 189.733 1468 190.8ZM1530.67 334C1527.47 337.333 1524.53 340 1524.13 340C1523.73 340 1526.13 337.333 1529.33 334C1532.53 330.667 1535.47 328 1535.87 328C1536.27 328 1533.87 330.667 1530.67 334ZM1565.33 396.533C1565.33 396.8 1564.27 397.867 1563.07 398.8C1560.93 400.533 1560.8 400.4 1562.53 398.267C1564.27 396.133 1565.33 395.467 1565.33 396.533ZM1549.73 408.667C1549.33 409.867 1548.67 410.533 1548.4 410.133C1548 409.733 1548.13 408.933 1548.67 408.133C1549.87 406 1550.67 406.4 1549.73 408.667Z" fill="white"/>
<path d="M1528.67 208C1530 209.467 1531.33 210.667 1531.73 210.667C1532.13 210.667 1531.33 209.467 1530 208C1528.67 206.533 1527.33 205.333 1526.93 205.333C1526.53 205.333 1527.33 206.533 1528.67 208Z" fill="white"/>
<path d="M1536 215.333C1537.73 217.2 1539.47 218.667 1539.73 218.667C1540.13 218.667 1539.07 217.2 1537.33 215.333C1535.6 213.467 1533.87 212 1533.6 212C1533.2 212 1534.27 213.467 1536 215.333Z" fill="white"/>
<path d="M1703.33 336.933V556H1779.07C1828.53 556 1854.67 555.6 1854.67 554.667C1854.67 553.867 1856.4 553.333 1858.4 553.333C1863.73 553.333 1864.67 551.867 1861.07 548.933C1859.33 547.6 1858.93 546.8 1860 547.333C1861.07 547.867 1860.27 546.8 1858.13 545.067C1856 543.2 1854.67 541.067 1855.2 540.267C1855.6 539.467 1855.33 538.4 1854.53 537.867C1853.47 537.2 1853.33 537.467 1854 538.667C1854.8 539.867 1854.53 540.133 1853.47 539.467C1852.53 538.8 1852.13 537.6 1852.53 536.533C1852.93 535.6 1852.53 534.4 1851.73 533.867C1850.8 533.333 1850.67 533.467 1851.2 534.4C1853.2 537.6 1850.93 535.867 1848.67 532.533C1847.07 530.133 1846.93 529.333 1848.13 530C1849.2 530.533 1848.53 529.6 1846.67 528C1844.8 526.4 1844.27 525.467 1845.33 526C1846.4 526.533 1845.6 525.467 1843.47 523.733C1841.33 521.867 1840 519.733 1840.53 518.933C1840.93 518.133 1840.67 517.067 1839.87 516.533C1838.8 516 1838.67 516.133 1839.2 517.067C1841.2 520.4 1838.8 518.4 1836.53 514.933C1834.8 512.4 1834.8 511.733 1836.13 512.667C1837.2 513.333 1836.53 512.533 1834.67 510.8C1832.8 509.067 1832.27 508.133 1833.33 508.667C1834.4 509.2 1833.87 508.267 1832 506.667C1830.13 505.067 1829.6 504.133 1830.67 504.667C1831.73 505.2 1830.93 504.133 1828.8 502.4C1826.67 500.533 1825.33 498.4 1825.87 497.6C1826.27 496.8 1826 495.733 1825.2 495.2C1824.13 494.667 1824 494.8 1824.53 495.733C1826.53 499.067 1824.13 497.067 1821.87 493.733C1820.13 491.067 1820.13 490.4 1821.47 491.333C1822.53 492 1821.87 491.2 1820 489.467C1818.13 487.733 1817.6 486.8 1818.67 487.333C1819.73 487.867 1819.2 486.933 1817.33 485.333C1815.47 483.733 1814.8 482.933 1815.87 483.467C1817.07 484.133 1817.47 483.867 1816.8 482.933C1816.13 481.867 1809.2 481.333 1794.53 481.333H1773.33L1773.07 335.333L1772.67 189.333H1811.73C1840.13 189.333 1850.53 189.733 1849.87 190.8C1849.2 191.867 1850.93 192 1855.87 191.333C1860.53 190.667 1862.67 190.933 1862.67 191.867C1862.67 192.8 1864 193.067 1866 192.533C1868.13 192 1869.33 192.267 1869.33 193.2C1869.33 194.133 1870.67 194.4 1872.8 193.867C1875.47 193.2 1876.13 193.333 1875.33 194.667C1874.67 195.867 1875.07 196 1877.33 195.333C1879.47 194.667 1880 194.8 1879.33 196C1878.67 197.2 1879.07 197.333 1881.2 196.667C1882.8 196.133 1884 196.4 1884 197.2C1884 198 1884.93 198.267 1886 197.867C1887.07 197.333 1888 197.733 1888 198.667C1888 199.467 1888.53 199.867 1889.2 199.333C1891.07 198.267 1897.33 201.467 1896.4 203.067C1896 203.733 1896.4 204 1897.47 203.733C1898.53 203.333 1900.13 204 1901.07 205.2C1902.13 206.4 1902.4 206.533 1902 205.6C1900.53 202.8 1906.67 206.133 1909.73 209.867C1911.07 211.333 1911.87 211.733 1911.33 210.667C1910.8 209.6 1911.73 210.133 1913.47 212C1915.2 213.867 1916.13 214.533 1915.33 213.467C1914.53 212.267 1915.87 212.8 1918.4 214.533C1920.67 216.133 1922.67 217.867 1922.67 218.267C1922.67 218.667 1921.6 218.133 1920.4 217.2C1918.27 215.467 1918.13 215.6 1919.87 217.6C1920.8 218.933 1922.13 219.6 1922.93 219.2C1923.6 218.8 1928.4 222.8 1933.73 228.267L1943.47 238L1934.67 230C1929.87 225.6 1932.13 228.267 1939.73 235.733C1948.13 244.133 1953.2 250.267 1952.8 251.467C1952.4 252.4 1952.8 253.6 1953.6 254.133C1954.53 254.667 1954.67 254.533 1954.13 253.6C1953.6 252.667 1953.47 252 1953.87 252C1954.27 252 1955.2 253.333 1956.13 254.8C1957.33 257.067 1957.2 257.467 1955.73 256.667C1954.8 256.133 1955.33 256.933 1956.8 258.267C1960 260.933 1963.87 267.6 1961.47 266.133C1960.67 265.6 1960.93 267.2 1962.13 269.867C1963.47 272.4 1964.93 274.267 1965.47 274C1966.93 273.067 1968 277.067 1967.07 279.6C1966.4 281.2 1966.67 281.467 1968 280.667C1969.33 279.867 1969.6 280.133 1968.93 281.733C1968.53 283.067 1968.67 284 1969.33 284C1970 284 1970.13 284.933 1969.73 286.267C1969.07 287.867 1969.33 288.133 1970.67 287.333C1972 286.533 1972.27 286.933 1971.73 289.067C1971.2 290.667 1971.47 292 1972.27 292C1972.93 292 1973.07 293.333 1972.67 294.8C1972 296.933 1972.13 297.333 1973.33 296.667C1974.67 295.867 1974.8 296.533 1974.13 299.2C1973.47 301.867 1973.6 302.667 1974.8 301.867C1976 301.2 1976.13 302.267 1975.47 306C1974.8 309.333 1974.93 310.667 1976 310C1976.93 309.467 1977.07 310.8 1976.53 314.533C1976 317.6 1976.13 320 1976.93 320C1977.6 320 1978.13 327.067 1978.13 336C1978.13 344.8 1977.6 352 1976.93 352C1976.4 352 1976.27 354.667 1976.8 358C1977.33 362.133 1977.2 364 1976.13 364C1975.2 364 1974.93 365.333 1975.47 367.467C1976.13 370.133 1976 370.8 1974.8 370.133C1973.73 369.333 1973.47 370.133 1974.13 372.533C1974.67 374.8 1974.4 376 1973.33 376C1972.4 376 1972.13 377.067 1972.67 378.667C1973.2 380.133 1972.93 381.333 1972.13 381.333C1971.33 381.333 1971.2 382.267 1971.6 383.6C1972.27 385.067 1972 385.467 1970.8 384.667C1969.47 383.867 1969.33 384.4 1970 386.667C1970.67 388.8 1970.53 389.333 1969.33 388.667C1968.13 388 1968 388.533 1968.67 390.667C1969.33 392.933 1969.2 393.467 1967.87 392.667C1966.67 391.867 1966.4 392.267 1967.07 393.733C1968.13 396.533 1966.8 400.267 1965.2 399.2C1964.53 398.8 1964.4 399.6 1964.93 400.8C1965.6 402.533 1965.33 402.8 1964 402C1962.93 401.333 1962.53 401.467 1963.07 402.4C1964.27 404.133 1962.8 408.267 1961.33 407.333C1960.8 406.933 1959.87 407.6 1959.47 408.8C1958.93 410 1959.2 410.533 1960.13 409.867C1961.2 409.333 1961.07 409.867 1960.13 411.867C1959.2 413.333 1958 414.667 1957.47 414.667C1956.8 414.667 1955.2 416.267 1953.87 418.267C1951.6 421.867 1951.6 422 1954 420C1956 418.533 1955.87 419.067 1953.33 422.533C1948.67 429.333 1921.33 456.133 1920.13 455.333C1919.47 455.067 1918.13 455.733 1917.2 457.067C1915.47 459.2 1915.47 459.2 1918 457.333C1920.4 455.6 1920.53 455.6 1919.07 457.333C1916.8 460.133 1908.67 464.933 1910 462.533C1910.67 461.467 1909.6 462.267 1907.6 464.267C1904.13 468 1901.73 469.333 1903.47 466.533C1904 465.467 1903.47 465.467 1901.47 466.533C1900 467.467 1898.67 468.667 1898.67 469.333C1898.67 470 1897.73 470.133 1896.4 469.733C1895.07 469.2 1894.53 469.467 1895.07 470.267C1896.13 471.867 1892.4 473.733 1890.53 472.533C1889.07 471.733 1889.87 479.6 1891.33 481.067C1892 481.6 1892 481.2 1891.33 480.133C1890.53 478.8 1890.8 478.533 1891.87 479.2C1892.8 479.867 1893.2 481.067 1892.8 482.133C1892.4 483.067 1892.8 484.267 1893.6 484.8C1894.53 485.467 1894.67 485.067 1894 484C1893.2 482.8 1893.47 482.533 1894.53 483.2C1895.47 483.867 1895.87 485.067 1895.47 486.133C1895.07 487.067 1895.47 488.267 1896.27 488.8C1897.2 489.467 1897.33 489.067 1896.67 488C1895.87 486.8 1896.13 486.533 1897.2 487.2C1898.13 487.867 1898.53 489.067 1898.13 490.133C1897.73 491.067 1898.13 492.267 1898.93 492.8C1899.87 493.467 1900 493.067 1899.33 492C1898.53 490.8 1898.8 490.533 1899.87 491.2C1900.8 491.867 1901.2 493.067 1900.8 494.133C1900.4 495.067 1900.8 496.267 1901.6 496.8C1902.53 497.467 1902.67 497.067 1902 496C1901.2 494.8 1901.47 494.533 1902.53 495.2C1903.47 495.867 1903.87 497.067 1903.47 498.133C1903.07 499.067 1903.47 500.267 1904.27 500.8C1905.2 501.467 1905.33 501.067 1904.67 500C1903.87 498.8 1904.13 498.533 1905.2 499.2C1906.13 499.867 1906.53 501.067 1906.13 502.133C1905.73 503.067 1906.13 504.267 1906.93 504.8C1907.87 505.467 1908 505.067 1907.33 504C1906.53 502.8 1906.8 502.533 1907.87 503.2C1908.8 503.867 1909.2 505.067 1908.8 506.133C1908.4 507.067 1908.8 508.267 1909.6 508.8C1910.53 509.333 1910.67 509.2 1910.13 508.267C1908.13 505.067 1910.4 506.8 1912.67 510.133C1914.27 512.533 1914.4 513.333 1913.2 512.667C1912.13 512.133 1912.8 513.067 1914.67 514.667C1916.53 516.267 1917.07 517.2 1916 516.667C1914.93 516.133 1915.47 517.067 1917.33 518.667C1919.2 520.267 1919.73 521.2 1918.67 520.667C1917.6 520.133 1918.13 521.067 1920 522.667C1921.87 524.267 1922.4 525.2 1921.33 524.667C1920.27 524.133 1920.8 525.067 1922.67 526.667C1924.53 528.267 1925.07 529.2 1924 528.667C1922.93 528.133 1923.47 529.067 1925.33 530.667C1927.2 532.267 1927.73 533.067 1926.67 532.533C1924.93 531.6 1924.93 531.867 1926.53 533.733C1928.53 536.267 1930 536.8 1928.53 534.4C1927.87 533.333 1928.27 533.2 1929.87 533.733C1931.07 534.267 1931.87 534.133 1931.47 533.467C1931.07 532.933 1932.27 531.733 1934.13 530.8C1936.8 529.6 1937.33 529.6 1936.67 530.933C1936.13 531.867 1937.07 531.2 1938.67 529.333C1940.27 527.467 1941.2 526.8 1940.67 527.733C1939.87 529.2 1940.27 529.333 1942.53 528.133C1944 527.2 1945.33 526.267 1945.33 525.867C1945.33 525.467 1944.8 525.6 1944 526C1943.33 526.4 1942.67 526.533 1942.67 526.133C1942.67 525.733 1944 524.8 1945.47 523.867C1947.73 522.667 1948.13 522.8 1947.33 524.267C1946.8 525.2 1947.73 524.533 1949.33 522.667C1950.93 520.8 1951.87 520.267 1951.33 521.333C1950.8 522.4 1951.73 521.867 1953.47 520C1955.2 518.133 1956.4 517.2 1956 518C1955.6 518.8 1956.8 517.867 1958.67 516C1960.53 514.133 1961.47 513.467 1960.8 514.667C1960 515.733 1962.4 513.6 1966.13 509.867C1969.73 506.267 1971.2 505.067 1969.33 507.333C1967.47 509.6 1969.47 507.867 1973.6 503.467C1977.73 498.933 1984.67 492 1988.93 488C1993.33 484 1995.2 481.867 1993.33 483.333C1991.47 484.8 1992.53 483.333 1996 480C1999.33 476.667 2001.07 474.533 2000 475.333C1998.8 476 2000 474.667 2002.53 472.133C2005.2 469.6 2006.13 468.4 2004.67 469.467C2002.13 471.2 2002.13 471.2 2003.87 468.667C2004.93 467.2 2007.33 464.533 2009.2 462.8C2011.07 461.067 2011.73 460.133 2010.67 460.667C2009.6 461.2 2010.13 460.267 2012 458.667C2013.87 457.067 2014.4 456.133 2013.33 456.667C2012.27 457.2 2012.8 456.267 2014.67 454.667C2016.53 453.067 2017.2 452.133 2016.27 452.667C2014.93 453.333 2015.07 452.533 2016.53 449.467C2017.73 447.2 2019.33 445.333 2020 445.333C2020.67 445.333 2021.87 444 2022.8 442.533C2023.87 440.4 2023.87 439.867 2022.8 440.533C2022 441.067 2022.27 439.467 2023.47 436.8C2024.8 434.267 2026.4 432.533 2027.07 432.933C2027.87 433.467 2028.13 432.933 2027.6 431.6C2027.2 430.267 2027.33 429.333 2028.13 429.333C2028.93 429.333 2029.2 428.8 2028.8 428.133C2027.6 426.267 2029.47 422.533 2031.07 423.6C2031.87 424.133 2032.13 423.6 2031.6 422.267C2031.2 420.933 2031.33 420 2032 420C2032.67 420 2032.8 419.067 2032.4 417.733C2031.73 416.267 2032 415.867 2033.2 416.667C2034.53 417.467 2034.67 416.933 2034 414.667C2033.33 412.533 2033.47 412 2034.67 412.667C2035.87 413.333 2036 412.8 2035.33 410.667C2034.67 408.533 2034.8 408 2036 408.667C2037.2 409.333 2037.33 408.8 2036.67 406.667C2036 404.533 2036.13 404 2037.33 404.667C2038.53 405.333 2038.67 404.933 2038 402.8C2037.47 401.067 2037.73 400 2038.67 400C2039.6 400 2039.87 398.933 2039.33 397.2C2038.67 395.2 2038.8 394.667 2039.87 395.333C2040.93 396 2041.2 395.2 2040.53 392.8C2040 390.533 2040.27 389.333 2041.2 389.333C2042.13 389.333 2042.4 388 2041.87 385.867C2041.2 383.2 2041.33 382.533 2042.53 383.2C2043.73 384 2044 383.067 2043.2 379.333C2042.53 375.6 2042.67 374.533 2043.87 375.2C2044.93 376 2045.2 374.667 2044.53 370.533C2043.87 366.267 2044 365.2 2045.2 365.867C2046.4 366.667 2046.67 365.067 2045.87 358.8C2045.2 353.067 2045.47 350.667 2046.53 350.667C2047.47 350.667 2048 346 2048 335.867C2048 325.2 2047.6 321.467 2046.53 322.133C2045.33 322.8 2045.2 320.933 2045.87 314.8C2046.53 308.933 2046.4 306.667 2045.2 306.667C2044.13 306.667 2043.87 305.067 2044.4 302C2044.8 299.2 2044.67 297.333 2043.87 297.333C2042.93 297.333 2042.8 295.733 2043.33 293.333C2043.87 290.667 2043.73 289.333 2042.67 289.333C2041.6 289.333 2041.33 288.133 2041.87 285.867C2042.53 283.467 2042.27 282.667 2041.2 283.467C2040 284.133 2039.87 283.467 2040.53 280.8C2041.07 278.667 2040.8 277.333 2040 277.333C2039.07 277.333 2038.8 276.267 2039.33 274.533C2040 272.4 2039.87 272 2038.53 272.667C2037.33 273.467 2037.07 272.933 2037.6 270.933C2038.13 269.333 2037.87 268 2037.07 268C2036.27 268 2036 267.067 2036.53 266C2036.93 264.933 2036.67 264 2035.87 264C2035.07 264 2034.67 263.067 2035.2 262C2035.6 260.933 2035.33 260 2034.53 260C2033.73 260 2033.33 259.067 2033.87 258C2034.27 256.933 2034 256 2033.33 256C2032.67 256 2032.53 255.067 2032.93 253.733C2033.6 252.133 2033.33 251.867 2032 252.667C2030.67 253.467 2030.4 253.2 2031.07 251.6C2031.47 250.267 2031.33 249.333 2030.67 249.333C2030 249.333 2029.87 248.4 2030.27 247.067C2030.8 245.733 2030.53 245.2 2029.73 245.733C2028.13 246.667 2024.93 240.4 2026 238.533C2026.53 237.867 2026.13 237.333 2025.33 237.333C2024.53 237.333 2024.27 236.667 2024.67 236C2025.07 235.2 2024.93 234.667 2024.13 234.667C2023.33 234.667 2021.47 232.267 2019.87 229.2C2018.27 225.867 2017.87 224.133 2018.93 224.8C2019.87 225.333 2019.07 224.267 2017.07 222.267C2013.2 218.667 2012.13 216.533 2015.07 218C2015.87 218.533 2015.2 217.6 2013.33 216C2011.47 214.4 2010.93 213.467 2012 214C2013.07 214.533 2012.4 213.6 2010.53 211.867C2008.67 210.133 2006.27 207.467 2005.2 206C2003.47 203.467 2003.47 203.467 2006 205.2C2007.47 206.267 2006.53 205.067 2003.87 202.533C1997.33 196.267 1991.73 189.333 1995.33 192C1996.8 193.067 1994.67 190.8 1990.4 186.933C1986.27 183.067 1978.4 175.2 1973.07 169.6C1967.73 164 1964.27 160.533 1965.33 162.133C1966.4 163.6 1964.93 162.4 1962.13 159.467C1959.2 156.4 1957.47 154.933 1958.13 156C1958.8 157.2 1957.87 156.533 1956 154.667C1954.13 152.8 1953.33 152.133 1954 153.2C1954.93 154.533 1954.27 154.4 1951.73 152.8C1948.27 150.533 1946.27 148.133 1949.6 150.133C1950.53 150.667 1950.67 150.533 1950.13 149.6C1949.6 148.8 1948.4 148.4 1947.47 148.8C1946.4 149.2 1945.2 148.8 1944.53 147.867C1943.87 146.8 1944.13 146.533 1945.33 147.333C1946.4 148 1946.8 147.867 1946.13 146.933C1945.6 146.133 1944.4 145.733 1943.33 146.133C1942.4 146.533 1940.93 145.733 1940.13 144.267C1939.33 142.8 1937.73 141.333 1936.67 140.8C1935.47 140.4 1934.93 140.533 1935.33 141.333C1935.87 142.133 1934.67 142 1932.8 141.2C1930.93 140.267 1929.73 139.067 1930.13 138.533C1930.53 137.867 1929.73 137.733 1928.53 138.267C1926.93 138.8 1926.53 138.667 1927.2 137.6C1927.87 136.533 1927.33 136.267 1925.87 136.933C1924.13 137.6 1923.87 137.333 1924.67 136C1925.33 134.933 1925.2 134.533 1924.27 135.067C1922.27 136.4 1918.53 134.667 1919.6 132.933C1920.13 132.133 1919.6 131.867 1918.27 132.4C1916.93 132.8 1916 132.667 1916 132C1916 131.333 1915.07 131.2 1913.73 131.6C1912.13 132.267 1911.87 132 1912.67 130.667C1913.47 129.333 1913.2 129.067 1911.6 129.733C1910.27 130.133 1909.33 130 1909.33 129.333C1909.33 128.667 1908.4 128.533 1907.07 128.933C1905.6 129.6 1905.2 129.333 1906 128.133C1906.67 126.8 1906.27 126.667 1904.13 127.333C1902.53 127.867 1901.33 127.6 1901.33 126.8C1901.33 126 1900.4 125.733 1899.33 126.133C1898.27 126.667 1897.33 126.267 1897.33 125.333C1897.33 124.4 1896.27 124.133 1894.53 124.667C1892.53 125.333 1892 125.2 1892.67 124.133C1893.33 123.067 1892.53 122.8 1889.87 123.467C1887.2 124.133 1886.53 124 1887.33 122.667C1888.13 121.467 1887.33 121.333 1884 122C1880.8 122.667 1879.87 122.533 1880.67 121.333C1881.47 120.133 1880.53 120 1877.47 120.667C1874.8 121.2 1873.33 121.067 1873.33 120.133C1873.33 119.2 1871.47 118.933 1868 119.467C1865.07 120 1862.67 119.867 1862.67 119.2C1862.67 118.533 1827.87 118 1783.07 118H1703.33V336.933ZM1944 435.067C1944 435.2 1940.53 438.667 1936.4 442.667L1928.67 450L1936 442.267C1942.67 435.2 1944 434 1944 435.067Z" fill="white"/>
<path d="M1982 177.333C1987.07 182.4 1991.6 186.667 1991.87 186.667C1992.27 186.667 1988.4 182.4 1983.33 177.333C1978.27 172.133 1973.73 168 1973.47 168C1973.07 168 1976.93 172.133 1982 177.333Z" fill="white"/>
<path d="M1183.33 198.667C1184.67 200.133 1186 201.333 1186.4 201.333C1186.8 201.333 1186 200.133 1184.67 198.667C1183.33 197.2 1182 196 1181.6 196C1181.2 196 1182 197.2 1183.33 198.667Z" fill="white"/>
<path d="M2000 197.867C2000 198.133 2001.07 199.2 2002.4 200.133C2004.4 201.867 2004.53 201.733 2002.8 199.6C2001.07 197.467 2000 196.8 2000 197.867Z" fill="white"/>
<path d="M1944 241.867C1944 242.133 1945.07 243.2 1946.4 244.133C1948.4 245.867 1948.53 245.733 1946.8 243.6C1945.07 241.467 1944 240.8 1944 241.867Z" fill="white"/>
<path d="M589.866 422.933L587.333 426L590.4 423.467C592 422 593.333 420.667 593.333 420.4C593.333 419.333 592.266 420.133 589.866 422.933Z" fill="white"/>
<path d="M1945.87 429.6L1943.33 432.667L1946.4 430.133C1949.2 427.733 1950 426.667 1948.93 426.667C1948.67 426.667 1947.33 428 1945.87 429.6Z" fill="white"/>
<path d="M1923.2 452.267L1920.67 455.333L1923.73 452.8C1926.53 450.4 1927.33 449.333 1926.27 449.333C1926 449.333 1924.67 450.667 1923.2 452.267Z" fill="white"/>
<path d="M640.667 482.933L628.667 495.333L641.067 483.333C647.734 476.8 653.334 471.2 653.334 471.067C653.334 470 651.734 471.6 640.667 482.933Z" fill="white"/>
<path d="M844 476.667C845.733 478.533 847.466 480 847.733 480C848.133 480 847.066 478.533 845.333 476.667C843.6 474.8 841.866 473.333 841.6 473.333C841.2 473.333 842.266 474.8 844 476.667Z" fill="white"/>
<path d="M1886.67 474.533C1886.67 475.333 1887.2 476.267 1888 476.667C1888.8 477.067 1888.93 476.533 1888.53 475.467C1887.6 473.067 1886.67 472.667 1886.67 474.533Z" fill="white"/>
<path d="M1168 490C1162.53 495.467 1158.4 500 1158.8 500C1159.07 500 1163.87 495.467 1169.33 490C1174.8 484.533 1178.93 480 1178.53 480C1178.27 480 1173.47 484.533 1168 490Z" fill="white"/>
<path d="M1982 496.267L1976.67 502L1982.4 496.667C1985.47 493.867 1988 491.333 1988 491.067C1988 490 1986.8 491.067 1982 496.267Z" fill="white"/>
<path d="M0 652.667V672H451.333H902.667V652.667V633.333H451.333H0V652.667Z" fill="white"/>
<path d="M1120 652.667V672H1571.33H2022.67V652.667V633.333H1571.33H1120V652.667Z" fill="white"/>
</svg>
